<svg id="Layer_1" data-name="Layer 1" xmlns="http://www.w3.org/2000/svg" viewBox="0 0 472.46 97.92"><defs><style>.cls-1{fill:#7bc8d3;}</style></defs><path class="cls-1" d="M688.55,357.57h27.89c28.77,0,48.53,13.37,48.53,46.78S745.21,452,717.9,452H688.55ZM715,432c13.66,0,24.41-5.52,24.41-27.6S728.65,377.62,715,377.62h-1.45V432Z" transform="translate(-688.55 -355.83)"/><path class="cls-1" d="M781.82,357.57h61v20.92h-36v14.82h30.8v20.92h-30.8v16.85h37.48V452H781.82Z" transform="translate(-688.55 -355.83)"/><path class="cls-1" d="M856.79,440.23,871,423.09c6.68,5.38,15.11,9.15,22.08,9.15,7.55,0,10.75-2.47,10.75-6.68,0-4.5-4.79-6-12.78-9.15l-11.77-4.94c-10.17-4.07-19-12.64-19-26.3,0-16.12,14.52-29.34,35.15-29.34a45.33,45.33,0,0,1,31.38,12.64l-12.49,15.69c-6.39-4.51-11.91-6.83-18.89-6.83-6.1,0-9.87,2.18-9.87,6.39,0,4.5,5.37,6.1,13.94,9.44L911,397.67c11.77,4.65,18.45,12.78,18.45,25.86,0,16-13.37,30.21-36.9,30.21A54.66,54.66,0,0,1,856.79,440.23Z" transform="translate(-688.55 -355.83)"/><path class="cls-1" d="M944.54,357.57h25V452h-25Z" transform="translate(-688.55 -355.83)"/><path class="cls-1" d="M986.38,405.51c0-31.67,21.79-49.68,47.07-49.68a42.6,42.6,0,0,1,30.8,12.49l-13.07,16c-4.65-4.07-9.3-7-16.85-7-12.79,0-22.38,10.17-22.38,27.31,0,17.72,7.85,27.6,24.7,27.6a14.16,14.16,0,0,0,7.26-1.74V417.42H1030V397.09h36v45c-6.69,6.39-18.6,11.62-32,11.62C1007.59,453.74,986.38,437.76,986.38,405.51Z" transform="translate(-688.55 -355.83)"/><path class="cls-1" d="M1084.3,357.57h25.57l20.92,42.13,9,21.21h.58c-1.16-10.17-3.19-24.41-3.19-36V357.57H1161V452h-25.57l-20.92-42.28-9-21.06h-.59c1.17,10.75,3.2,24.41,3.2,36V452H1084.3Z" transform="translate(-688.55 -355.83)"/></svg>