<svg id="Layer_1" data-name="Layer 1" xmlns="http://www.w3.org/2000/svg" xmlns:xlink="http://www.w3.org/1999/xlink" viewBox="0 0 428.13 328.94"><defs><style>.cls-1{fill:none;}.cls-2{clip-path:url(#clip-path);}.cls-3{clip-path:url(#clip-path-2);}.cls-4{fill:#fff;}</style><clipPath id="clip-path" transform="translate(-440.29 -290.11)"><rect class="cls-1" x="539.32" y="289.78" width="330" height="330"/></clipPath><clipPath id="clip-path-2" transform="translate(-440.29 -290.11)"><rect class="cls-1" x="539.7" y="290" width="328.99" height="329.24"/></clipPath></defs><g class="cls-2"><g class="cls-3"><path class="cls-4" d="M570.49,619.05H440.29V290.11H868.42V619.05H864.5a8.75,8.75,0,0,0,3.68-7.63c-.13-31.44-.07-62.89-.07-94.34v-1.8l-1.18.56c-2.4,1.23-4.79,2.5-7.22,3.67-1,.49-2.16.65-3.14,1.18a22.77,22.77,0,0,1-10.91,2.51,5,5,0,0,1-2.66-1c-1.72-1.18-3.35-2.52-5-3.83-5.47-4.43-11.1-8.68-16.37-13.34A72.26,72.26,0,0,1,803.76,482a1.89,1.89,0,0,0-2-1.16c-2,.09-4.1.06-6.15.18-1.09.06-1.48-.3-1.51-1.41-.15-6.34-.35-12.68-.53-19a4.79,4.79,0,0,1,.2-1l2.1,1.36c-.17-1.68-.24-2.92-.44-4.15s.19-1.66,1.47-1.65c3.36,0,6.72-.13,10.07-.19,1.4,0,2.59-.52,2.94-1.9a10.47,10.47,0,0,0,.24-3.7,2,2,0,0,0-2.42-1.93c-4.29.16-8.59.21-12.88.28a20,20,0,0,1-3.63-.09,2,2,0,0,1-1.42-1.16c-.09-.58.39-1.29.71-1.91.11-.2.47-.28.72-.41l14.57-7.76c3.76-2,5.22-5.1,4-8.79a14.27,14.27,0,0,0-1.64-3.38,10.79,10.79,0,0,0-6.14-4.6c-.51-.15-1.16.22-1.75.34.26.52.52,1,.79,1.56,0,.07.16.09.24.14,3.45,2,4.11,6.21,1.15,8.83-4.22,3.75-9.16,5.4-14.76,3.61-3.1-1-6-2.37-7-6-.28-1.05,0-1.41.92-1.53a9.36,9.36,0,0,1,2.77-.23,48.18,48.18,0,0,1,5.93,1.4c.93.27,1.58.27,1.95-.65s-.19-1.38-1-1.62c-.35-.1-.69-.27-1-.4-7.82-2.8-15.49-3.25-22.84,1.44a1.86,1.86,0,0,1-1.17.38,33.45,33.45,0,0,1-4.85-1.23c-1.4-.52-1.69-1.74-1-3.09.3-.56.7-1.07,1.06-1.61-2.15-.92-2.15-.92-2.21-3.52-.08-3.4-.17-6.81-.23-10.21a11.84,11.84,0,0,1,.17-1.54c2.25.68,4.3,1.29,6.34,1.93,1,.34,1.77.35,1.58-1.08-.13-1,.3-1.47,1.36-1.4a26.19,26.19,0,0,0,2.94,0c1.09-.05,1.43.32,1.34,1.48a11.93,11.93,0,0,0,11.74,13.2,10.07,10.07,0,0,0,10.93-10.19c0-1.05,0-2.11,0-3.4h8.43c4.34,0,8.67-.06,12.88-1.35a35.42,35.42,0,0,1,4.82-1.31c2.2-.36,4.45-.44,6.68-.67,2.65-.26,3.61-1.55,3.18-4.24-.24-1.54-.91-2.12-2.45-2q-7.25.7-14.47,1.49c-2.81.3-2.78.32-3.92-2.19-.89-2-1.86-3.93-2.79-5.9l.34.05a6.42,6.42,0,0,0,.51-1.89c-.14-2.84-.39-5.68-.58-8.51-.05-.68,0-1.36,0-2.4,2.57.8,5,1.4,7.23,2.29a10,10,0,0,1,6.21,6c.26.75.77,1.46,1.65,1a1.56,1.56,0,0,0,.38-1.48c-2.52-5.54-6-10.05-12.24-11.84a3.79,3.79,0,0,1-2-1.52c-2.32-3.68-2.52-7.83-2.32-12,0-.34.86-.89,1.35-.92a20.26,20.26,0,0,1,4.19.17,26.64,26.64,0,0,1,6,1.4,14.2,14.2,0,0,1,6,5.66c.88,1.35,1.61,1.64,2.57,1s.9-1.34,0-2.62c-.36-.51-.69-1-1-1.57a2.58,2.58,0,0,1,1.57.74q2.07,2.36,4.05,4.79a1.4,1.4,0,0,0,2.18.24,1.27,1.27,0,0,0,.26-2.05c-.26-.32-.51-.66-.75-1-4.39-6.09-9.79-10.89-17.12-13.11-1.51-.46-3.15-.49-4.63-1a29,29,0,0,0-10.16-1.71c-8.35.12-16.7.44-25,.67-4.11.12-8.21.21-12.31.35-1,0-1.58-.33-1.63-1.4-.06-1.53-.31-3.08-.22-4.6.43-7.11,3.78-12.88,8.51-17.94a11.32,11.32,0,0,1,3.49-2.69c4.36-1.9,8.81-3.59,13.23-5.34,13.62-5.39,27.2-10.88,40.87-16.13a93.11,93.11,0,0,1,26.17-6.29,10.56,10.56,0,0,1,4.13.2c3.15,1.09,6.19,2.49,9.36,3.79v-9.88H691.41l31.35,12.93-.07.37H721.4c-4.9.09-9.8,0-14.68.35-5.1.35-10.07,1.35-14.34,4.55-.46.35-1.7-.19-2.5-.51a1.37,1.37,0,0,1-.65-1.15c.29-1.47-.43-1.72-1.67-1.83q-9-.86-18.09-1.84c-1.45-.16-2.92-.83-4.31-.67-9.64,1.1-19.26,2.36-28.88,3.56-3.83.47-7.66,1.32-11.48,1.3a162.93,162.93,0,0,0-20.25.75,72.63,72.63,0,0,0-22.46,6,4.15,4.15,0,0,1-1.19.34,23.18,23.18,0,0,0-2.67.36c-1.43.42-2.8,1-4.22,1.49-11.33,3.61-22.68,7.17-34,10.82a40.9,40.9,0,0,0-12.44,5.95,8.63,8.63,0,0,1-1.61.73c0-2.95-.12-5.66,0-8.35a15,15,0,0,1,1.06-4.87,32.56,32.56,0,0,1,12.15-14.47A104.86,104.86,0,0,1,567,293.28l8.36-2.6a1,1,0,0,0-.69-.25c-8.49,0-17,0-25.48,0a4,4,0,0,0-2,.57c-8.67,5.16-15.88,11.75-20.47,20.89a2.05,2.05,0,0,1-2.53,1.14c.22-.65.37-1.21.6-1.76,1.73-4.26,5.15-7.15,8.39-10.16s3.18-2.81,1.75-6.92c-.43-1.26-.76-1.39-1.72-.46a73.94,73.94,0,0,0-5.49,5.57c-3.29,3.93-5.65,8.33-6.17,13.55a4.72,4.72,0,0,1-.36.93,30.61,30.61,0,0,1-2.75-2c-7.57-6.85-15.11-13.75-22.7-20.59a3.52,3.52,0,0,0-2.1-.78c-3.18-.08-6.35,0-9.52,0-.35,0-.7.06-1,.09l-.22.36c11.3,12.15,24.56,22.29,36.37,34.37-4.21,1.92-8.12,3.68-12,5.49-6.26,2.9-12.56,5.72-18.73,8.79a22.91,22.91,0,0,0-11.21,11.85c-.82,2-1.45,4-2.18,6.05a1.86,1.86,0,0,1-.28.41l-1.24-.37a5.44,5.44,0,0,0-.28.72,31.37,31.37,0,0,0,1.47,18.91c5.05,12.4,14,20.79,26.5,25.5a47.49,47.49,0,0,0,19.14,2.66,1.6,1.6,0,0,1,1.9,1.47l-1.3,1a6.24,6.24,0,0,0,1.16.65c1.48.42,1.79,1.32,1.48,2.76-.41,1.91-.58,3.87-1,5.79-1.4,7.17-.09,13.53,5.41,18.71a3.07,3.07,0,0,1,.66,1.89c.5,6.6.91,13.21,1.4,19.81a18.79,18.79,0,0,0,8.7,15,4.19,4.19,0,0,1,1.93,3.86Q541,489.16,552,496c4.14,2.58,8.22,5.26,12.33,7.89,2.52,1.6,5.05,3.18,7.56,4.79.71.45,1.11.31,1.3-.51.3-1.32.6-2.64.93-3.95a1.44,1.44,0,0,0-.86-1.81c-1-.58-2-1.3-3.25-2.14a18.53,18.53,0,0,0,6.39-9.81,16.55,16.55,0,0,0-1-11.45c-1.23,2.1-3.28,3.83-2.17,6.68a7.07,7.07,0,0,1,.18,2.91,10.07,10.07,0,0,1-5,8.44,3.26,3.26,0,0,1-3.88-.13c-2.81-1.91-5.83-3.53-8.58-5.53a111.94,111.94,0,0,1-9.21-7.46,11.58,11.58,0,0,1-3.64-7.53c-.11-1,.21-1.5,1.13-1.65.4,1.07.7,2.15,1.18,3.13a19.66,19.66,0,0,0,5.72,6.81c4.21,3.3,8.59,6.39,12.91,9.55,1,.69,2,1.28,3,1.95.63-1.36-.14-1.85-.87-2.36-5.4-3.75-10.88-7.4-15.45-12.2-1.7-1.79-3.38-3.56-4.14-6.05a5.6,5.6,0,0,0-2-2.35c-.58-.47-1.49-.5-2.16-.87-3-1.64-4.52-4.34-5.48-7.54.27,0,.39,0,.44,0,2.83,2.11,5.67,4.23,8.47,6.38a1.47,1.47,0,0,1,.65,1c-.13,3.22,1.79,5.36,3.8,7.5,3.79,4,8.53,6.76,13,9.86.26.18.72.07,1.09.1a4.26,4.26,0,0,0-.37-1.11c-.2-.29-.6-.43-.89-.66-3.71-2.88-7.48-5.7-11.11-8.69a13.39,13.39,0,0,1-4.48-7.13,10.88,10.88,0,0,1,1.24.84c1.74,1.62,3.37,3.37,5.21,4.86A31.05,31.05,0,0,0,559,480.9a6.93,6.93,0,0,0,2.41.32l.25-.68a17.42,17.42,0,0,1-8.35-5.34,16.66,16.66,0,0,1,4.39.42c2.46.7,4.84.14,5.84-1.64,1.12-2,.44-4.56-1.35-6.35a57.31,57.31,0,0,1-4.68-5.5,3.76,3.76,0,0,1-.53-2.2c0-2.18.19-4.37.21-6.55,0-2.47,0-4.94-.14-7.39a11.39,11.39,0,0,0-1-3.89c-1.13-2.39-2.44-4.7-3.75-7-2.09-3.68-4.21-7.28-5.33-11.46a20.94,20.94,0,0,0-4.79-8.45c-.31-.35-1-.72-1.33-.6-.93.34-1.45,2.29-1.08,3.25.75,2,1.49,3.92,2.15,5.91a2.66,2.66,0,0,1,0,1.74,2.11,2.11,0,0,0,.55,2.53,9.19,9.19,0,0,1,2.21,8.58c-.25,1.14-1.43,2.09-2.24,3.08-.09.1-.63,0-.86-.19a45.12,45.12,0,0,1-9.86-8.42,7,7,0,0,1-.58-.91l.2-.1,9.11,6.17.48-.52a8.07,8.07,0,0,0-1.19-1.4c-2.82-2.14-5.67-4.24-8.53-6.33a2.48,2.48,0,0,1-1-2.56c.36-2.49.66-5,1-7.48a14.72,14.72,0,0,1,.5-1.83l1.49.67c0-1.7.06-3.27,0-4.82-.05-1,.29-1.44,1.28-1.56,4.86-.62,9.54-.2,13.78,2.45,4,2.47,6.92,5.65,7.07,10.71a2.27,2.27,0,0,0,1.12,1.54c2,1.15,4.13,2.16,6.22,3.2.51.26,1.06.46,1.81.78,0-.66,0-1.07,0-1.46a21.25,21.25,0,0,0-4.47-11.3c-6.43-8.07-14.91-12-25.21-12-1,0-1.73-.21-1.65-1.32a3.15,3.15,0,0,0-1.36-2.72A33.91,33.91,0,0,1,520.41,377c-.1-1.56.64-3.16.87-4.76.26-1.89.12-3.87.62-5.68,1.45-5.21,4.42-9.34,9.39-11.75a1.92,1.92,0,0,0,1.22-2.07c0-2.8,0-5.6,0-8.4,0-.58.09-1.16.16-2a10.72,10.72,0,0,0,1.45.93c.55.25,1.34.69,1.7.48a2.75,2.75,0,0,0,1.12-1.7,27.2,27.2,0,0,0,.48-4,1.58,1.58,0,0,1,1.27-1.58c10-3.14,20-6.28,30-9.51,3-1,5.69-1.61,8.29,1,1,1,2.26.23,2.47-1.23a6.81,6.81,0,0,1,.16-1.52c.21-.49.59-1.15,1-1.27,2.7-.73,5.4-1.49,8.16-1.95,7.17-1.19,14.34-2.37,21.55-3.31,6.19-.8,12.43-1.28,18.65-1.83a21.58,21.58,0,0,1,3.59.29c-1.08,1.51-2,2.67-2.76,3.92a3.3,3.3,0,0,0-.53,2,31.88,31.88,0,0,1,.1,10.85,26.81,26.81,0,0,1-7.64,15.38c-4.65,4.5-9.9,7.5-16.74,6a1.89,1.89,0,0,0-.92.16c-.81.28-1.59.65-2.41.88-1.34.38-2.74.57-4.06,1-11.47,3.88-20.22,16.28-20.48,29-.08,4.36.48,8.7-.06,13.11a103.43,103.43,0,0,0-.49,14.09,48.53,48.53,0,0,0,4.84,20.26,11.44,11.44,0,0,1,.84,2.64c.86,4.15,1.46,8.37,2.55,12.47,1.6,6,3.5,11.9,5.34,17.82,2.13,6.85,3.68,13.9,6.9,20.38.07.14,0,.34,0,.72-1.36-.09-2.65-.22-3.94-.25-.56,0-1.45,0-1.62.34a2.34,2.34,0,0,0,.15,1.78q4.8,10.64,9.69,21.25c3.27,7.11,6.5,14.25,9.9,21.3a22.93,22.93,0,0,0,7.51,9.07c1.34.93,2.71,1.8,4.08,2.69.51.34,1,.55.6,1.4-.85,1.73-.22,2.58,1.75,2.62a18,18,0,0,1,8.73,2.17,29,29,0,0,1,10.51,10.64c6.62,11.14,13,22.45,19.38,33.7a5,5,0,0,1,.13,4.94c-1.07,2.18-.61,4.09,1.07,5.89,4.27,4.56,8.49,9.16,12.74,13.75h-61c0-.33,0-.65,0-1-.13-2.35.08-4.5,2.4-6,1-.63.72-1.5-.47-2.07-2.13-1-4.25-2.08-6.4-3.07-.42-.2-1.14-.44-1.38-.25a2,2,0,0,0-.5,1.45c0,3.62.12,7.25.19,10.87H585.62a57.68,57.68,0,0,1-4.12-5.93,14.12,14.12,0,0,1-1.32-8,2.11,2.11,0,0,0-2.08-2.3c-1.34,0-1.54.93-1.53,2A19.42,19.42,0,0,1,570.49,619.05Zm-3.68-45.48h.3c0,2.43,0,4.85,0,7.28-.15,6.12,2,11,7.39,14.24a5,5,0,0,0,1.71.31c-.27-.49-.42-1.17-.84-1.45a8,8,0,0,1-3.75-6.28c-.42-6.31-.6-12.65-.77-19a3.34,3.34,0,0,1,1-2c.71-.78.66-1.21-.25-1.7a2.68,2.68,0,0,1-1-1c-.32-.54-.38-1.31-.8-1.72-2-2-3.71-4.2-3.89-7.07A48.52,48.52,0,0,1,566,546c.86-6.79,2-13.55,3.08-20.32a3.66,3.66,0,0,1,2.13-3.06c1.49-.69,1.46-1.29.07-2.23-1.62-1.09-3.26-2.16-4.86-3.29-.91-.65-1.4-.35-1.57.62-.21,1.19-.28,2.4-.47,3.6-1.18,7.84-2.39,15.67-3.57,23.5a18.53,18.53,0,0,0,4.66,15.8c.92,1,2.23,1.89,1.31,3.59-.07.15,0,.37,0,.56Zm-4.1-134.22c-.16.34-.55.77-.52,1.18.35,5.24.73,10.49,1.17,15.73.48,5.81,4.07,9.39,8.88,12,.34.19.89,0,1.35-.06-.22-.43-.33-1.07-.68-1.26a8.05,8.05,0,0,1-4.24-4.94,33.94,33.94,0,0,1-1.27-5.85c-.47-4.86-.76-9.74-1.07-14.62-.06-1-.38-1.47-1.33-1.62C564.36,439.81,563.73,439.61,562.71,439.35Z" transform="translate(-440.29 -290.11)"/><path d="M677.74,619.05c-4.25-4.59-8.47-9.19-12.74-13.75-1.68-1.8-2.14-3.71-1.07-5.89a5,5,0,0,0-.13-4.94c-6.43-11.25-12.76-22.56-19.38-33.7a29,29,0,0,0-10.51-10.64,18,18,0,0,0-8.73-2.17c-2,0-2.6-.89-1.75-2.62.41-.85-.09-1.06-.6-1.4-1.37-.89-2.74-1.76-4.08-2.69a22.93,22.93,0,0,1-7.51-9.07c-3.4-7-6.63-14.19-9.9-21.3s-6.49-14.16-9.69-21.25a2.34,2.34,0,0,1-.15-1.78c.17-.32,1.06-.35,1.62-.34,1.29,0,2.58.16,3.94.25,0-.38.06-.58,0-.72-3.22-6.48-4.77-13.53-6.9-20.38-1.84-5.92-3.74-11.84-5.34-17.82-1.09-4.1-1.69-8.32-2.55-12.47a11.44,11.44,0,0,0-.84-2.64,48.53,48.53,0,0,1-4.84-20.26,103.43,103.43,0,0,1,.49-14.09c.54-4.41,0-8.75.06-13.11.26-12.69,9-25.09,20.48-29,1.32-.44,2.72-.63,4.06-1,.82-.23,1.6-.6,2.41-.88a1.89,1.89,0,0,1,.92-.16c6.84,1.46,12.09-1.54,16.74-6a26.81,26.81,0,0,0,7.64-15.38,31.88,31.88,0,0,0-.1-10.85,3.3,3.3,0,0,1,.53-2c.76-1.25,1.68-2.41,2.76-3.92a21.58,21.58,0,0,0-3.59-.29c-6.22.55-12.46,1-18.65,1.83-7.21.94-14.38,2.12-21.55,3.31-2.76.46-5.46,1.22-8.16,1.95-.43.12-.81.78-1,1.27a6.81,6.81,0,0,0-.16,1.52c-.21,1.46-1.48,2.21-2.47,1.23-2.6-2.57-5.33-1.92-8.29-1-10,3.23-20,6.37-30,9.51A1.58,1.58,0,0,0,537.4,338a27.2,27.2,0,0,1-.48,4,2.75,2.75,0,0,1-1.12,1.7c-.36.21-1.15-.23-1.7-.48a10.72,10.72,0,0,1-1.45-.93c-.07.88-.16,1.46-.16,2,0,2.8,0,5.6,0,8.4a1.92,1.92,0,0,1-1.22,2.07c-5,2.41-7.94,6.54-9.39,11.75-.5,1.81-.36,3.79-.62,5.68-.23,1.6-1,3.2-.87,4.76a33.91,33.91,0,0,0,11.28,23.32,3.15,3.15,0,0,1,1.36,2.72c-.08,1.11.63,1.32,1.65,1.32,10.3,0,18.78,3.9,25.21,12a21.25,21.25,0,0,1,4.47,11.3c0,.39,0,.8,0,1.46-.75-.32-1.3-.52-1.81-.78-2.09-1-4.19-2.05-6.22-3.2a2.27,2.27,0,0,1-1.12-1.54c-.15-5.06-3.12-8.24-7.07-10.71-4.24-2.65-8.92-3.07-13.78-2.45-1,.12-1.33.55-1.28,1.56.09,1.55,0,3.12,0,4.82l-1.49-.67a14.72,14.72,0,0,0-.5,1.83c-.36,2.49-.66,5-1,7.48a2.48,2.48,0,0,0,1,2.56c2.86,2.09,5.71,4.19,8.53,6.33a8.07,8.07,0,0,1,1.19,1.4l-.48.52-9.11-6.17-.2.1a7,7,0,0,0,.58.91,45.12,45.12,0,0,0,9.86,8.42c.23.16.77.29.86.19.81-1,2-1.94,2.24-3.08a9.19,9.19,0,0,0-2.21-8.58,2.11,2.11,0,0,1-.55-2.53,2.66,2.66,0,0,0,0-1.74c-.66-2-1.4-4-2.15-5.91-.37-1,.15-2.91,1.08-3.25.33-.12,1,.25,1.33.6a20.94,20.94,0,0,1,4.79,8.45c1.12,4.18,3.24,7.78,5.33,11.46,1.31,2.3,2.62,4.61,3.75,7a11.39,11.39,0,0,1,1,3.89c.18,2.45.16,4.92.14,7.39,0,2.18-.21,4.37-.21,6.55a3.76,3.76,0,0,0,.53,2.2,57.31,57.31,0,0,0,4.68,5.5c1.79,1.79,2.47,4.35,1.35,6.35-1,1.78-3.38,2.34-5.84,1.64a16.66,16.66,0,0,0-4.39-.42,17.42,17.42,0,0,0,8.35,5.34l-.25.68a6.93,6.93,0,0,1-2.41-.32,31.05,31.05,0,0,1-4.92-3.13c-1.84-1.49-3.47-3.24-5.21-4.86a10.88,10.88,0,0,0-1.24-.84,13.39,13.39,0,0,0,4.48,7.13c3.63,3,7.4,5.81,11.11,8.69.29.23.69.37.89.66a4.26,4.26,0,0,1,.37,1.11c-.37,0-.83.08-1.09-.1-4.49-3.1-9.23-5.84-13-9.86-2-2.14-3.93-4.28-3.8-7.5a1.47,1.47,0,0,0-.65-1c-2.8-2.15-5.64-4.27-8.47-6.38,0-.05-.17,0-.44,0,1,3.2,2.48,5.9,5.48,7.54.67.37,1.58.4,2.16.87a5.6,5.6,0,0,1,2,2.35c.76,2.49,2.44,4.26,4.14,6.05,4.57,4.8,10,8.45,15.45,12.2.73.51,1.5,1,.87,2.36-1.06-.67-2.09-1.26-3-1.95-4.32-3.16-8.7-6.25-12.91-9.55a19.66,19.66,0,0,1-5.72-6.81c-.48-1-.78-2.06-1.18-3.13-.92.15-1.24.65-1.13,1.65a11.58,11.58,0,0,0,3.64,7.53,111.94,111.94,0,0,0,9.21,7.46c2.75,2,5.77,3.62,8.58,5.53a3.26,3.26,0,0,0,3.88.13,10.07,10.07,0,0,0,5-8.44,7.07,7.07,0,0,0-.18-2.91c-1.11-2.85.94-4.58,2.17-6.68a16.55,16.55,0,0,1,1,11.45,18.53,18.53,0,0,1-6.39,9.81c1.25.84,2.21,1.56,3.25,2.14a1.44,1.44,0,0,1,.86,1.81c-.33,1.31-.63,2.63-.93,3.95-.19.82-.59,1-1.3.51-2.51-1.61-5-3.19-7.56-4.79-4.11-2.63-8.19-5.31-12.33-7.89q-11-6.84-11.19-19.75a4.19,4.19,0,0,0-1.93-3.86,18.79,18.79,0,0,1-8.7-15c-.49-6.6-.9-13.21-1.4-19.81a3.07,3.07,0,0,0-.66-1.89c-5.5-5.18-6.81-11.54-5.41-18.71.38-1.92.55-3.88,1-5.79.31-1.44,0-2.34-1.48-2.76a6.24,6.24,0,0,1-1.16-.65l1.3-1a1.6,1.6,0,0,0-1.9-1.47,47.49,47.49,0,0,1-19.14-2.66c-12.46-4.71-21.45-13.1-26.5-25.5a31.37,31.37,0,0,1-1.47-18.91,5.44,5.44,0,0,1,.28-.72l1.24.37a1.86,1.86,0,0,0,.28-.41c.73-2,1.36-4.07,2.18-6.05a22.91,22.91,0,0,1,11.21-11.85c6.17-3.07,12.47-5.89,18.73-8.79,3.88-1.81,7.79-3.57,12-5.49-11.81-12.08-25.07-22.22-36.37-34.37l.22-.36c.34,0,.69-.09,1-.09,3.17,0,6.34-.05,9.52,0a3.52,3.52,0,0,1,2.1.78c7.59,6.84,15.13,13.74,22.7,20.59a30.61,30.61,0,0,0,2.75,2,4.72,4.72,0,0,0,.36-.93c.52-5.22,2.88-9.62,6.17-13.55a73.94,73.94,0,0,1,5.49-5.57c1-.93,1.29-.8,1.72.46,1.43,4.11,1.36,4-1.75,6.92s-6.66,5.9-8.39,10.16c-.23.55-.38,1.11-.6,1.76a2.05,2.05,0,0,0,2.53-1.14c4.59-9.14,11.8-15.73,20.47-20.89a4,4,0,0,1,2-.57c8.5,0,17,0,25.48,0a1,1,0,0,1,.69.25l-8.36,2.6a104.86,104.86,0,0,0-27.73,13.1,32.56,32.56,0,0,0-12.15,14.47,15,15,0,0,0-1.06,4.87c-.17,2.69,0,5.4,0,8.35a8.63,8.63,0,0,0,1.61-.73A40.9,40.9,0,0,1,540,327.39c11.32-3.65,22.67-7.21,34-10.82,1.42-.46,2.79-1.07,4.22-1.49a23.18,23.18,0,0,1,2.67-.36,4.15,4.15,0,0,0,1.19-.34,72.63,72.63,0,0,1,22.46-6,162.93,162.93,0,0,1,20.25-.75c3.82,0,7.65-.83,11.48-1.3,9.62-1.2,19.24-2.46,28.88-3.56,1.39-.16,2.86.51,4.31.67q9,1,18.09,1.84c1.24.11,2,.36,1.67,1.83a1.37,1.37,0,0,0,.65,1.15c.8.32,2,.86,2.5.51,4.27-3.2,9.24-4.2,14.34-4.55,4.88-.35,9.78-.26,14.68-.35h1.29l.07-.37-31.35-12.93H868v9.88c-3.17-1.3-6.21-2.7-9.36-3.79a10.56,10.56,0,0,0-4.13-.2,93.11,93.11,0,0,0-26.17,6.29c-13.67,5.25-27.25,10.74-40.87,16.13-4.42,1.75-8.87,3.44-13.23,5.34a11.32,11.32,0,0,0-3.49,2.69c-4.73,5.06-8.08,10.83-8.51,17.94-.09,1.52.16,3.07.22,4.6,0,1.07.58,1.44,1.63,1.4,4.1-.14,8.2-.23,12.31-.35,8.34-.23,16.69-.55,25-.67a29,29,0,0,1,10.16,1.71c1.48.53,3.12.56,4.63,1,7.33,2.22,12.73,7,17.12,13.11.24.34.49.68.75,1a1.27,1.27,0,0,1-.26,2.05,1.4,1.4,0,0,1-2.18-.24q-2-2.43-4.05-4.79a2.58,2.58,0,0,0-1.57-.74c.35.53.68,1.06,1,1.57.93,1.28.94,2,0,2.62s-1.69.37-2.57-1a14.2,14.2,0,0,0-6-5.66,26.64,26.64,0,0,0-6-1.4,20.26,20.26,0,0,0-4.19-.17c-.49,0-1.34.58-1.35.92-.2,4.19,0,8.34,2.32,12a3.79,3.79,0,0,0,2,1.52c6.19,1.79,9.72,6.3,12.24,11.84a1.56,1.56,0,0,1-.38,1.48c-.88.5-1.39-.21-1.65-1a10,10,0,0,0-6.21-6c-2.27-.89-4.66-1.49-7.23-2.29,0,1,0,1.72,0,2.4.19,2.83.44,5.67.58,8.51a6.42,6.42,0,0,1-.51,1.89l-.34-.05c.93,2,1.9,3.92,2.79,5.9,1.14,2.51,1.11,2.49,3.92,2.19q7.23-.79,14.47-1.49c1.54-.14,2.21.44,2.45,2,.43,2.69-.53,4-3.18,4.24-2.23.23-4.48.31-6.68.67a35.42,35.42,0,0,0-4.82,1.31c-4.21,1.29-8.54,1.36-12.88,1.35h-8.43c0,1.29,0,2.35,0,3.4a10.07,10.07,0,0,1-10.93,10.19,11.93,11.93,0,0,1-11.74-13.2c.09-1.16-.25-1.53-1.34-1.48a26.19,26.19,0,0,1-2.94,0c-1.06-.07-1.49.39-1.36,1.4.19,1.43-.54,1.42-1.58,1.08-2-.64-4.09-1.25-6.34-1.93a11.84,11.84,0,0,0-.17,1.54c.06,3.4.15,6.81.23,10.21.06,2.6.06,2.6,2.21,3.52-.36.54-.76,1-1.06,1.61-.72,1.35-.43,2.57,1,3.09a33.45,33.45,0,0,0,4.85,1.23,1.86,1.86,0,0,0,1.17-.38c7.35-4.69,15-4.24,22.84-1.44.35.13.69.3,1,.4.83.24,1.39.69,1,1.62s-1,.92-1.95.65a48.18,48.18,0,0,0-5.93-1.4,9.36,9.36,0,0,0-2.77.23c-.9.12-1.2.48-.92,1.53,1,3.63,3.88,5,7,6,5.6,1.79,10.54.14,14.76-3.61,3-2.62,2.3-6.8-1.15-8.83-.08-.05-.2-.07-.24-.14-.27-.51-.53-1-.79-1.56.59-.12,1.24-.49,1.75-.34a10.79,10.79,0,0,1,6.14,4.6,14.27,14.27,0,0,1,1.64,3.38c1.18,3.69-.28,6.78-4,8.79l-14.57,7.76c-.25.13-.61.21-.72.41-.32.62-.8,1.33-.71,1.91a2,2,0,0,0,1.42,1.16,20,20,0,0,0,3.63.09c4.29-.07,8.59-.12,12.88-.28a2,2,0,0,1,2.42,1.93,10.47,10.47,0,0,1-.24,3.7c-.35,1.38-1.54,1.88-2.94,1.9-3.35.06-6.71.19-10.07.19-1.28,0-1.66.43-1.47,1.65s.27,2.47.44,4.15l-2.1-1.36a4.79,4.79,0,0,0-.2,1c.18,6.34.38,12.68.53,19,0,1.11.42,1.47,1.51,1.41,2-.12,4.1-.09,6.15-.18a1.89,1.89,0,0,1,2,1.16,72.26,72.26,0,0,0,17.88,23.08c5.27,4.66,10.9,8.91,16.37,13.34,1.64,1.31,3.27,2.65,5,3.83a5,5,0,0,0,2.66,1,22.77,22.77,0,0,0,10.91-2.51c1-.53,2.14-.69,3.14-1.18,2.43-1.17,4.82-2.44,7.22-3.67l1.18-.56v1.8c0,31.45-.06,62.9.07,94.34a8.75,8.75,0,0,1-3.68,7.63H721.14c3.25-4,6.39-8,9.78-11.87,2.47-2.82,4-5.68,3.64-9.65a48.69,48.69,0,0,1,1.07-15.16,11.36,11.36,0,0,1,2.84-5.68,6.09,6.09,0,0,1,1.36-.8l.46.34c-4.64,7.32-4.22,15.42-4.31,23.75,2-1.87,1.63-3.92,1.61-5.89,0-.23,0-.47,0-.7.21-4.66.24-9.35,2.07-13.76a6.08,6.08,0,0,1,3.34-3.79c.1.54.16.91.24,1.31l2.09-1.41.54.33c-3.75,5.95-4.22,12.5-4,19.18a3.37,3.37,0,0,0,.5-1.54c.24-2.08.36-4.19.75-6.24.5-2.62,1.14-5.24,3.32-7.08a9.52,9.52,0,0,1,1.38-.8c.22,1.07-1,2.06.34,2.84a3.67,3.67,0,0,0,0-3.55,29.62,29.62,0,0,1-2.13-5.87c-.26-1-.56-1.34-1.54-1.3-4.29.17-8.59.16-12.86.47-6.25.46-11.43-1.3-15.07-6.63-.3-.43-.52-1.43-.3-1.62.77-.67,1,.3,1.46.69a18.36,18.36,0,0,0,3.71,2.8c2.77,1.29,5.82,1.15,8.8,1.08,5.78-.12,11.56-.36,17.34-.5,4-.11,8,0,12-.23,3.13-.17,6.1-1,8.07-3.78,1-1.35,1-2-.52-2.8a7.56,7.56,0,0,0-3.45-.91c-3.39.09-6.78.46-10.18.64a2.31,2.31,0,0,1-1.79-.57,1.93,1.93,0,0,0-2-1c-.79.05-1.59,0-2.38.1-1.19.11-1.69-.42-1.75-1.6q-.2-4.26-.48-8.51c-.26-3.93,0-3.08-3.24-3.09-2.07,0-4.18-.17-5,2.42,0,.11-.81.11-1.17,0a18.86,18.86,0,0,0-2.38-1.11,33,33,0,0,0-4.43-.63c-2.92-.24-5.85-.45-8.78-.59-.82,0-1.71.12-1.92,1.22s-.48,2.26-.76,3.62c1.54-1.07,2.86-2.73,5.14-1.28l-2.75,2.61.11.42c2.77-1.12,5.28-.32,7.73.8.47.22,1.15.29,1.39.65a6.46,6.46,0,0,0,4.7,3c3.19.45,6.39.78,9.58,1.14,1.67.18,2.1.77,1.72,2.69-3.53-.42-7.1-.78-10.64-1.3a7.49,7.49,0,0,1-5-3.14,5.77,5.77,0,0,0-6.9-2.25c-1.54.52-3.06,1.12-4.57,1.74-1.77.73-3.52,1.5-5.27,2.28-1,.43-1.52-.19-1.93-.88a1,1,0,0,1,.18-1c1-.94,1.09-1.41-.25-2-2.13-.88-4.33-1.58-6.55-2.37a4.62,4.62,0,0,0-.22.74,6,6,0,0,1-4.55,5.26,2.18,2.18,0,0,0-1.08.81,11.17,11.17,0,0,0-1.82,3.13,32.23,32.23,0,0,0-.62,4.94l.48.13c1.4-3.11,2.4-6.55,6.2-7.76a8.5,8.5,0,0,1-1.15,2.56,25.26,25.26,0,0,0-2.17,3.36A52.75,52.75,0,0,0,695.61,579c-.39,2.73-.72,5.46-1.19,8.17-.1.56-.73,1-1.12,1.55a5.22,5.22,0,0,1-.38-1.68c.26-2.6.62-5.19.93-7.78a14,14,0,0,0,0-1.61c-1.65,1.12-2.68,2.83-4.88,2.69,2.92-1.86,3.69-4.61,3.76-7.71-1.79.37-3.42.66-5,1a11.18,11.18,0,0,0-2.09.88,31.22,31.22,0,0,0-2.92,1.54,4.09,4.09,0,0,0-1.37,1.31,5,5,0,0,0-.46,1.74q-1,5.94-2,11.87c-.13.79-.18,1.58-1.59,1.49.55-4.38,1.09-8.68,1.66-13.13a6.27,6.27,0,0,1-1.64.38c-.36,0-1-.4-1-.61a4.66,4.66,0,0,1,.4-2.52,5.5,5.5,0,0,0,.93-4.24c-.11-1.11-.32-2.21-.42-3.33-.21-2.3.16-4.38,2.31-5.75,1.08-.69,1.39-.56,1.44.7s0,2.71.09,4c.06.52.56,1.33.95,1.38a1.86,1.86,0,0,0,1.48-.88,6.58,6.58,0,0,0,.38-2.17c.25-2.11.78-4.26,2.84-5.13a7.14,7.14,0,0,0,3.41-3.45q1.19-2.06,2.41-4.1c1.08-1.78,1.08-1.77,2.88-.79a3,3,0,0,0,.71.18c-.19-2.14-.35-4.17-.56-6.2a8,8,0,0,1,2.38-6.61c.55-.57,1.15-1.09,1.72-1.64-.43,1.83-1.4,3.37-1.68,5a20.89,20.89,0,0,0,.21,5.28c.17,1.77.46,3.53.7,5.29l.67,0c.19-1,.45-1.89.57-2.84.23-1.8.23-3.64.59-5.41a4.12,4.12,0,0,1,4.38-3.37c-.28,1.56-.63,3.09-.79,4.64-.06.63.1,1.73.47,1.89,2,.9,4.17,1.59,6.28,2.3a1,1,0,0,0,.88-.21,6.4,6.4,0,0,0,2.35-4.57,39.48,39.48,0,0,1,.4-4.87,4.89,4.89,0,0,1,3.12-3.86c.9-.39,1.48-.18,1.27,1s-.44,2.2-.59,3.3c-.11.82-.11,1.66-.18,2.81,3.55-1.92,6.89-1.19,10.21-.78,1.71.21,3.43.39,5.14.64,1.11.16,1.51-.23,1.46-1.37-.09-2.21-.2-4.35-1.88-6.09a15.16,15.16,0,0,1-1.3-2.31,2.17,2.17,0,0,0-1.07-1,13,13,0,0,1-8.54-6c-.43-.72-.84-.64-1.27,0-.21.31-.43.61-.63.92-1.79,2.89-3.57,5.79-5.37,8.68-.4.64-.74,1.46-2,1a15,15,0,0,1,.72-1.5c2.22-3.67,4.48-7.31,6.67-11a5.48,5.48,0,0,0,.31-1.72l-.48-.12a9.84,9.84,0,0,0-.83.89c-1.43,2-2.9,4-4.25,6.07-1.2,1.84-2.24,3.77-3.38,5.64-.37.62-.82,1.25-2,.66l7.59-12.83c-1.64.66-3,1.07-3.84,2.5-1.8,3-3.72,6-5.6,9-.38.61-.71,1.38-2,.75l5.67-9.81-.41-.28a9.59,9.59,0,0,0-.85,1.08c-.78,1.27-1.49,2.59-2.32,3.83-.18.28-.75.29-1.15.43a3.38,3.38,0,0,1,.15-1.12c.57-1.15,1.21-2.26,1.84-3.42-2.61-.83-3.36-.41-3.74,2s-.66,4.52-1,6.77a6.54,6.54,0,0,1-.61,1.42l-.66-.19,1.23-10.06-.64-.1-.84,4.07-.49-.08v-4.06l-.51-.09-.93,4.26c-1.2-3.48,1.08-10.6,3.34-11a14.73,14.73,0,0,0-1.29,2.2c-.27.71-1,1.47-.09,2.57.42-1.08.73-2,1.12-2.84.56-1.26,1.06-1.69,2-1.82l-.39.76c-.43.87-.91,1.73-1.27,2.63-.12.31.06.74.11,1.12.28-.23.66-.41.81-.71.28-.53.34-1.19.64-1.7a37,37,0,0,1,2.31-3.62c.29-.39.92-.53,1.4-.78l.26.33c-.32.5-.67,1-.95,1.49-.71,1.29-1.43,2.59-2.07,3.91-.26.54-.13,1.18.63,1,1.79-.52,3.62-1.06,4.79-2.68,2.77-3.85,5.33-7.9,10.06-10.14a22.22,22.22,0,0,1-2-1.16c-3.2-2.33-6.44-4.62-9.53-7.07a2.26,2.26,0,0,0-2.71-.42,11.48,11.48,0,0,1-11.34-.8,2.07,2.07,0,0,0-1.13-.4,13.06,13.06,0,0,0-5.58,2c-5.56,3.46-10,8.14-14.63,12.69-1.9,1.87-4.14,3.48-5.68,5.61-2.26,3.11-4,6.6-6,9.87a32.71,32.71,0,0,1-2.74,3.67c-.57.69-1.49,1.13-1.94,1.88a69.27,69.27,0,0,0-7.13,17.58c-.1.39-.23.93-.05,1.21,1.35,2.15,2.78,4.26,4.41,6.73.2-1,.36-1.52.42-2.08.52-5.5,1.3-11,3.46-16.08.91-2.16,2.54-4,3.53-6.15,2-4.35,5.94-6.68,9.56-9.35a2.27,2.27,0,0,1,.85-.15c.15,2.41-2.75,3.18-2.63,5.46a59.74,59.74,0,0,0,4.68-6.56c1.24-2,3.26-2.64,5.3-2.75a2.75,2.75,0,0,0,2.21-.91,16.44,16.44,0,0,1,2.15-1.6l.43.45c-.38.66-.75,1.33-1.16,2a14.45,14.45,0,0,0-1.94,3.17c-1.17,4-2.2,8.08-3.14,12.16-.45,1.94-.52,4-.88,5.94-.09.49-.63.9-1,1.35a4.72,4.72,0,0,1-.31-1.43c.66-5.79,1.23-11.61,3.16-17.16a1.53,1.53,0,0,0,0-.59,3.41,3.41,0,0,0-1.29,1.66c-1.14,3.93-2.32,7.85-3.28,11.83-.54,2.25-.63,4.62-1.06,6.91-.11.56-.73,1.43-1.13,1.44-1,0-1-.85-.92-1.66.16-1.21.31-2.41.43-3.61.07-.68.08-1.37.12-2h-.37c-.33,2.38-.65,4.77-1,7.16-.13.81,0,1.82-1.41,2.11V548.5a2.85,2.85,0,0,0-.47,1.32c-.34,2.35-.64,4.71-1,7.06-.08.51-.34,1.33-.67,1.41a2,2,0,0,0-1.61,2c-.05.31-.64.54-1,.8a6,6,0,0,1-.46-1.12,4.87,4.87,0,0,1,.06-1.12l-1.58.2a148.12,148.12,0,0,1,2.52-18.13,3.47,3.47,0,0,0-.7,1.36c-.86,4-1.75,7.91-2.53,11.89-.37,1.87-.47,3.79-.77,5.68-.21,1.31-1,1.57-1.91.78a16.13,16.13,0,0,1-.58,2.11c-.11.26-.57.37-.88.55a2.77,2.77,0,0,1-.37-.91,10,10,0,0,1,.19-1.53q.45-3.88.88-7.79l-.42-.06c-.59,3.48-1.14,7-1.77,10.44a6.43,6.43,0,0,0,1,5.16c.83,1.19,1.47,2.52,2.2,3.79,0-1.9-.41-3.66-.54-5.45s0-3.56,1.83-4.81c-.85,5.48.72,10.48,2.64,15.41,0-1.21-.36-2.37-.49-3.56a23.6,23.6,0,0,1-.12-3.76,4.05,4.05,0,0,1,1.68-3.3c.55,2.9-.85,5.63.6,8.31.52-1.63.29-3.36,2-4.68,0,1.06.12,1.81.11,2.56a28.59,28.59,0,0,0-.08,4.13c.73,5,2.65,9.61,4.52,14.24a6,6,0,0,0,.79,1c-.11-.7-.14-1-.2-1.31-1-5-2.06-10-2.9-15.1a23.92,23.92,0,0,1,.09-10.28,5.54,5.54,0,0,1,2.42-3.38c-.06,3.16-2,5.76-1,8.76l1.83-1.94.4.2a7.45,7.45,0,0,1-.36,2.1,12.25,12.25,0,0,0-.87,7c.56,4.76,1.42,9.49,2.18,14.23.19,1.14.65,2.27-.41,3.27a.93.93,0,0,0,0,.89,8.21,8.21,0,0,0,1.59,2.26,2.2,2.2,0,0,1,.9,2.54,12.28,12.28,0,0,0-.4,2.06,4.21,4.21,0,0,0,1.79,3.82c.17-.46.3-.75.39-1a76,76,0,0,1,2.46-7.43,46.21,46.21,0,0,1,3.86-6.76,3.81,3.81,0,0,1,3.68-1.74c-.71.92-1.19,1.56-1.7,2.18a13.76,13.76,0,0,0-2.27,2.79q-2.5,5.84-4.66,11.81c-.7,1.94-.1,3,2,4.12.16-.56.3-1.08.45-1.59,1-3.53,2-7.09,3.15-10.57a17.5,17.5,0,0,1,4.67-7.71,15.49,15.49,0,0,1,2.42-1.48l.42.52c-.48.63-.95,1.27-1.44,1.9a30.76,30.76,0,0,0-2.67,3.52,57.45,57.45,0,0,0-5.05,13.75c-.29,1.08-.49,2.18-.74,3.26l.38.12c.12-.32.25-.62.35-.94.89-2.79,1.66-5.63,2.68-8.38,1.1-3,2.51-5.85,5.17-7.82a8,8,0,0,1,1.82-.78l.3.45c-.43.58-.85,1.16-1.29,1.73-.94,1.2-2.21,2.25-2.78,3.61-1.64,3.85-3,7.8-4.44,11.75-.79,2.27,0,3.78,2.42,5.14a25.07,25.07,0,0,0,1.32-3.31c.86-3.53,1.59-7.09,2.41-10.63a10.1,10.1,0,0,1,.74-1.74l.6.25c-.59,5.66-1.43,11.28-3.93,16.52ZM636.26,487.56l.32.61c-1,1-1.76,2.41-2.94,3-2.52,1.21-4,3.28-5.55,5.4-5.24,7.39-9,15.58-12.26,24-.72,1.8.11,3,1.07,4.66.73-1.83,1.37-3.31,1.91-4.82a91.88,91.88,0,0,1,9.54-19.73c2-3.09,4.28-6,7.58-7.91a5.38,5.38,0,0,1,4.31-.88,23.52,23.52,0,0,1-3.24,3.43,25,25,0,0,0-2.92,2.32,63.39,63.39,0,0,0-4.27,5.88c-4.55,7-7.68,14.69-10.81,22.39-.61,1.49-.84,2.78.14,4.19.83,1.18,1.51,2.46,2.46,4,1.32-3.47,2.49-6.46,3.6-9.47,3.11-8.33,6.66-16.43,12-23.59,2.17-2.88,4.58-5.57,8.15-6.8a19.09,19.09,0,0,1,2.75-.53l.25.47c-1.06,1.13-1.95,2.59-3.24,3.31a14,14,0,0,0-4.42,3.76A95.92,95.92,0,0,0,629,522c-1.79,4.2-3.39,8.48-5.13,12.7-.77,1.85-.65,2.39,1.29,3.73.23-.45.47-.88.68-1.33,3.38-7.06,6.58-14.22,10.18-21.17a68.67,68.67,0,0,1,12-17c2.77-2.79,5.84-5.1,9.93-5.56a9.73,9.73,0,0,1,1.52.07l.18.42c-1.36,1.25-2.52,2.89-4.11,3.65a13.55,13.55,0,0,0-5.12,3.75c-3.19,4.07-6.43,8.13-9.28,12.43-5.07,7.69-8.89,16.06-12.71,24.42-1.38,3-1.25,3.34,1.7,5,1,.55,1.48.45,1.93-.61,1.16-2.65,2.43-5.25,3.6-7.89,3.55-8,7.43-15.9,12.71-23,2.72-3.64,5.65-7.09,10-9a5.62,5.62,0,0,1,4.39-.52,29,29,0,0,1-3.78,3.58c-1.22,1-2.76,1.59-3.83,2.69a73.38,73.38,0,0,0-11.57,16.42c-3.33,6.15-6.22,12.53-9.35,18.79-.46.93-.16,1.23.71,1.45,1.06.27,1.38-.35,1.68-1.18,2.12-5.73,4.24-11.47,7.64-16.61a16.38,16.38,0,0,1,5.45-5.71,13.74,13.74,0,0,1,2.59-.83l.17.42a6.31,6.31,0,0,1-.66.86,37.25,37.25,0,0,0-4,3.77c-4.41,5.6-7.18,12.07-9.6,18.71-.1.28.26.79.5,1.12.36.49.84.89,1.19,1.38a4.13,4.13,0,0,1,.35,1.06l.41,0c.17-.44.37-.87.5-1.31,1.62-5.7,3.06-11.46,5.81-16.76,1.42-2.73,2.86-5.49,5.61-7.17a11.52,11.52,0,0,1,2.13-.79l.28.46a8.31,8.31,0,0,1-1.52,1.91c-2,1.42-3.18,3.48-4.31,5.58-3,5.5-4.75,11.45-6.47,17.41-.49,1.68-.16,2.15,1.8,2.51.2-.59.41-1.19.61-1.8,1.19-3.73,2.24-7.52,3.6-11.18s3.05-7.14,5.91-9.89a5.49,5.49,0,0,1,4.06-1.78c-.74,1-1.24,1.74-1.81,2.43a36.16,36.16,0,0,0-3.54,4.24c-3.31,5.52-5.27,11.61-7,17.77-.46,1.64-.19,2.1,1.63,2.57.19-.59.39-1.2.6-1.81,1.7-4.93,3.18-10,5.21-14.74,1.06-2.5,3-4.66,4.72-6.85a3.66,3.66,0,0,1,3.43-1.35,13,13,0,0,1-1.61,2.25,32.83,32.83,0,0,0-3.53,4.26c-3.39,5.91-5.37,12.4-7.21,18.91a5,5,0,0,0,.27,1.9l.49,0a3.28,3.28,0,0,0,.41-.66c1-3,1.73-6,2.85-8.92,1.78-4.56,3.58-9.16,7.75-12.24a3.85,3.85,0,0,0,.8-1.12c2.22-3.67,4.29-7.44,6.69-11s5.14-7,9.27-8.89c.37-.16.63-.55,1-.82,2.44-2.16,4.75-4.5,7.38-6.41a85.69,85.69,0,0,1,7.91-4.64l-.53-1.08c-2.4-4.66-.81-11.13,3.48-14a2.2,2.2,0,0,1,1.49-.17c.23.62.53,1.5.25,2-2.51,4.16-2.29,8.24.18,12.28a6.66,6.66,0,0,0,5.33,3.19c2,.2,4,.17,5.34-1.88.57-.89,1.56-.93,2.4-.07.43.44.93.81,1.41,1.22,1.62-2.17,1.62-2.17,3.5-1.81,0-.09.09-.19.06-.25-.11-.26-.25-.5-.38-.75a31.65,31.65,0,0,1-2.89-10c-.13-.84.21-1.51,1-1.45.45,0,1,.65,1.23,1.13a9.05,9.05,0,0,1,.34,1.78c.63,2.35,1.21,4.86,3.27,6.34,3.51,2.52,7.49,3.92,11.87,2.92a85.31,85.31,0,0,0,9.07-2.76c3.06-1.08,5.91.28,6.2,3.31.13,1.26.58,1.63,1.73,1.45a5.24,5.24,0,0,1,1.25-.05A4.76,4.76,0,0,0,755,498.6c2.39-4.47,4.71-8.86,3.16-14.16-.26-.9-.62-1.76-.89-2.65-.86-2.73-2.25-5-5-6.24-.39-.18-.91-.79-.84-1.06a2.07,2.07,0,0,1,1-1.18,2.36,2.36,0,0,1,1.37,0,14.06,14.06,0,0,1,8.18,4.49c.29.31.6.59,1,1,.17-.62.26-1,.37-1.32a8.48,8.48,0,0,1,1-2.71c.27-.33,1.4,0,2.33.07a7.79,7.79,0,0,0-.95-1.09c-1.53-1.15-1.89-2.66-1.92-4.52-.18-9.56-.49-19.12-.72-28.68a2.46,2.46,0,0,0-1.23-2.25c-2.61-1.8-5.14-3.72-7.61-5.69-1.77-1.41-1.68-1.46-.77-3.57a3.57,3.57,0,0,0,.15-1.78c-.09-.71-.55-1.38-.57-2.07-.25-6.9-.43-13.8-.64-20.7,0-1.52-.49-1.84-2.25-1.62v6.39a2.63,2.63,0,0,1-1-1.17q-1.89-3.9-3.76-7.82c-1.07-2.21-1.61-2.31-3.54-.67a3.33,3.33,0,0,0-.51.48c-2.49,3.13-5.08,6.19-7.43,9.43-1.68,2.31-3,4.87-4.59,7.39l.74,1.14a86.24,86.24,0,0,0-9.25-.88,81.54,81.54,0,0,0-9,1l.07.51a43.75,43.75,0,0,1,4.81-.56c3.16,0,6.32,0,9.46.26a4.76,4.76,0,0,1,3.91,2.61,14.88,14.88,0,0,1-3.21-.45,19.25,19.25,0,0,0-3.36-.79,63.79,63.79,0,0,0-14.45,1.31c-2.78.56-5.55,1.22-8.34,1.78a4.13,4.13,0,0,1-1.73-.19,9.69,9.69,0,0,1,.05-1.16c0-.16-.17-.31-.24-.48l-1.1-2.63a2.67,2.67,0,0,1,.4-.32c3.72-1.72,7.41-3.54,11.18-5.14,3.45-1.45,7-2.64,10.83-2.45a11.53,11.53,0,0,1,3.5,1.16,13.58,13.58,0,0,1,1.54,1c.78.45,1.59.84,2.39,1.26l-.22.64c-1-.09-2.07-.17-3.1-.28a16,16,0,0,0-2.46-.28,51.83,51.83,0,0,0-13.91,3l-3.49,1.22a3.06,3.06,0,0,0,1.68-.07c3.59-.82,7.15-1.78,10.77-2.43a22.35,22.35,0,0,1,10.81.23c.33.1,1-.31,1.26-.67,1.24-2,2.34-4.14,3.58-6.17,2.79-4.59,5.6-9.17,10.38-12.06a1.33,1.33,0,0,0,.39-1.22c-1.29-2.74-2.5-5.54-4-8.14-2.24-3.76-4.73-7.37-7.09-11.07-3.07-4.79-4.19-9.89-2.47-15.48a45.72,45.72,0,0,1,3.89-8.62c4.71-8.63,9.2-17.39,13.77-26.11a6.17,6.17,0,0,0,.32-1.12c-.85-.13-1.52-.27-2.21-.34-6.49-.67-13-1.47-19.49-1.95a125.38,125.38,0,0,0-22.91.71c-3.57.38-6.28,2.6-9.54,3.63-2.67.84-4.79-.11-7-1-.68-.27-1.27-.79-2-1-4.79-1.58-9.77-1.4-14.7-1.47-10-.13-19.88,1.54-29.74,3.15-.39.07-1,.38-1.06.67-.31,1.57-.47,3.17-.71,5l1.54-.37c5.29-1.12,10.56-2.37,15.88-3.3a19.14,19.14,0,0,1,10.09.58,16.38,16.38,0,0,1,2.82,1.7l-.27.67c-1.05-.16-2.11-.28-3.15-.48a24.64,24.64,0,0,0-3.23-.73c-8.05-.46-15.73,1.63-23.44,3.49-.32.08-.55.57-.82.86l.28.37,1.17-.26c4.2-.84,8.38-1.82,12.61-2.48a19.67,19.67,0,0,1,10.09.63,4.2,4.2,0,0,1,2.73,2.41c-1.2-.16-2.14-.27-3.08-.42a37.28,37.28,0,0,0-5.58-.91c-6.11-.09-12,1.28-17.94,2.68-1.36.32-1.41,1.35-1.5,2.62.59-.15,1-.3,1.47-.37,4.31-.71,8.62-1.55,13-2.07A13.62,13.62,0,0,1,659,338.5a12.92,12.92,0,0,1,1.91,1.49l-.25.39a4.85,4.85,0,0,1-1.08,0,37.25,37.25,0,0,0-4.71-1.08c-5.88-.5-11.62.56-17.32,1.82-2.23.49-3.09,1.44-3.46,3.91a6.67,6.67,0,0,0,.67-.06c3.34-.67,6.65-1.48,10-2,3.79-.57,7.64-.87,11.32.62a15,15,0,0,1,2.61,1.71l-.24.44a5.9,5.9,0,0,1-1.19,0,32.28,32.28,0,0,0-5.12-1.16c-6.45-.35-12.73.88-19,2.4-1.12.28-1.46,1.33-1.87,2.53l1.17-.29a93.13,93.13,0,0,1,9.34-2.35,38.1,38.1,0,0,1,7.92-.08A4.07,4.07,0,0,1,653,349c-1.39-.07-2.38-.08-3.37-.18a28.2,28.2,0,0,0-3.84-.43,57.81,57.81,0,0,0-16.2,3.61,6.87,6.87,0,0,0-1.53,1.1l.23.35c2.21-.52,4.41-1.08,6.62-1.55a21.63,21.63,0,0,1,9.3-.39,3.86,3.86,0,0,1,3.1,2.11c-3.84-.3-7.63-.91-11.45,0s-7.57,1.47-11,3.28a31.53,31.53,0,0,0,3.48-.85c2.9-.71,5.81-1.49,8.81-.55a10.85,10.85,0,0,1,1.68.89l-.13.42a7.4,7.4,0,0,1-1.46.29,35.89,35.89,0,0,0-4.14-.08c-5,.62-9.6,2.62-14.21,4.56-3.79,1.6-7.1,4.33-11.38,4.74-2.87.28-5.74.57-8.6.94a5.37,5.37,0,0,0-2.55.8q-5.69,4.51-11.21,9.25c-1.19,1-1.09,2.59-1.31,4.15a3.1,3.1,0,0,0,.65-.22c.29-.23.54-.51.83-.74,3.63-2.83,7.18-5.79,10.94-8.44a13.14,13.14,0,0,1,8.23-2.72,9.38,9.38,0,0,1,1.82.47l0,.57c-1,.32-2,.65-3,.94a20.2,20.2,0,0,0-3.33.93c-5.91,2.91-11,7-15.81,11.44a2,2,0,0,0-.43,2.36c.21,0,.33,0,.38,0,.32-.27.64-.55.94-.83,4.58-4.36,9.39-8.44,15.28-10.91a19.65,19.65,0,0,1,5.3-.86c.4-.05.84.31,1.66.65a14.89,14.89,0,0,1-1.79.77,27.82,27.82,0,0,0-4.16,1.05c-6.4,2.84-11.71,7.25-16.78,12-.89.82-.73,2.28.27,3.47a2.64,2.64,0,0,0,.41-.34c2.42-2.88,4.76-5.84,7.3-8.62a11.67,11.67,0,0,1,6.48-3.91,8.65,8.65,0,0,1,1.61,0l.09.5c-.61.39-1.21.79-1.84,1.16-1.27.74-2.79,1.23-3.8,2.24-3,3-5.76,6.07-8.51,9.23a18.82,18.82,0,0,0-2.51,4,9.29,9.29,0,0,0-.48,2.62c2.19-2.38,4-4.84,5.91-7.14,2.21-2.59,4.56-5.08,7.73-6.56a4.46,4.46,0,0,1,3.94-.22c-.95.58-1.61,1-2.26,1.39a39.82,39.82,0,0,0-5.06,3.33,68.41,68.41,0,0,0-9.67,11.39c-1,1.44-.62,2.82-.41,4.62.37-.48.52-.65.64-.84,1.66-2.59,3.19-5.27,5-7.74,2-2.7,4.21-5.25,7.34-6.76a3.92,3.92,0,0,1,3.61-.3c-1,.74-1.68,1.35-2.46,1.9a29.22,29.22,0,0,0-3.39,2.36c-4.27,4.07-7.33,9-10.29,14.07-.72,1.23-.11,2.44.07,4,.38-.49.53-.66.65-.85,2.25-3.53,4.39-7.14,6.77-10.58a17.74,17.74,0,0,1,6.67-6.05,3.73,3.73,0,0,1,3.43-.32,14.38,14.38,0,0,1-2.45,2,16.94,16.94,0,0,0-2.67,1.72A68.1,68.1,0,0,0,585,414.06a4.82,4.82,0,0,0-.24,1.59l.43.1c.2-.34.4-.68.62-1,2.15-3.26,4.17-6.63,6.51-9.75,1.87-2.49,4-4.85,7.15-5.85a13.91,13.91,0,0,1,2.34-.36l.21.49c-.77.62-1.52,1.25-2.31,1.85a38,38,0,0,0-4.38,3.34c-3.9,4-6.76,8.78-9.56,13.58-.91,1.56-.12,3.09.05,4.66a2.6,2.6,0,0,0,.76-.85c2.06-3.32,4-6.72,6.2-10a20.57,20.57,0,0,1,7.45-7,3.85,3.85,0,0,1,3.43-.3,13.72,13.72,0,0,1-2.48,1.95,13.7,13.7,0,0,0-2.12,1.31c-5.5,5.2-9.38,11.55-12.91,18.16a2.93,2.93,0,0,0-.08,1.16l.37.08c.25-.42.49-.86.76-1.27,2.08-3.26,4.06-6.59,6.29-9.74a19.83,19.83,0,0,1,6.68-6.26,5.45,5.45,0,0,1,3.77-.6,8.68,8.68,0,0,1-1,1.05,34.76,34.76,0,0,0-4.22,2.87,58.77,58.77,0,0,0-11.62,16.34c-.64,1.24,0,3.16.12,4.77a2.25,2.25,0,0,0,.37.09c.26-.44.56-.91.82-1.39a80.9,80.9,0,0,1,9-14.15,17.17,17.17,0,0,1,6.24-5.07,16.67,16.67,0,0,1,2.95-.68l.23.54a8.69,8.69,0,0,1-2.2,1.75,11.74,11.74,0,0,0-4.71,3.63c-4.8,5.24-8.2,11.42-11.66,17.55a3.94,3.94,0,0,0-.16,1.4l.44.08c.23-.38.44-.78.68-1.15,2.59-4,5.06-8.16,7.81-12.08a15.29,15.29,0,0,1,6.85-5.81,14.27,14.27,0,0,1,2.65-.49l.18.55c-.76.58-1.5,1.18-2.27,1.73a26.85,26.85,0,0,0-3.3,2.29c-4.61,4.58-7.86,10.14-11.21,15.64-1.53,2.51-.15,4.35.52,6.8.36-.59.53-.85.69-1.12,2.14-3.76,4.17-7.6,6.48-11.26a16.44,16.44,0,0,1,6.7-6.39,16.63,16.63,0,0,1,2.77-.77l.25.53c-.7.64-1.38,1.31-2.11,1.92a35.32,35.32,0,0,0-4.14,3.42c-4,4.61-6.87,10-9.59,15.4-.49,1,0,3,1,4,.28-.57.5-1.13.79-1.65,2.3-4.05,4.5-8.15,6.94-12.12a16,16,0,0,1,6.61-6.28,14.14,14.14,0,0,1,2.63-.71l.29.59c-.75.64-1.47,1.3-2.24,1.91a23.88,23.88,0,0,0-3.07,2.34c-4.75,5.3-8.08,11.5-11.14,17.86a4.79,4.79,0,0,0-.2,1.54l.47.08c.34-.7.61-1.44,1-2.11,2-3.49,4-7.09,6.28-10.39a31.67,31.67,0,0,1,5.24-5.17,5.22,5.22,0,0,1,4-1,7.83,7.83,0,0,1-.89,1,38.68,38.68,0,0,0-4.17,3.2c-4.44,4.5-7.41,10-10.33,15.55-1,1.84-.29,3.22.32,4.86.25-.17.4-.22.46-.33.17-.28.29-.59.45-.87,2.08-3.64,4-7.34,6.28-10.89a18.16,18.16,0,0,1,6.08-6.09,4.24,4.24,0,0,1,3.55-.63,14.17,14.17,0,0,1-2.06,2,31,31,0,0,0-3.85,3.14c-4.07,4.62-7,10-9.73,15.46a2.71,2.71,0,0,0,.48,3c.25-.45.44-.76.61-1.08,1.87-3.44,3.62-6.94,5.62-10.3a21.93,21.93,0,0,1,7.14-7.93,5.45,5.45,0,0,1,4.07-.86c-.93.86-1.49,1.72-2.27,2a11.68,11.68,0,0,0-4.41,3.77,78.06,78.06,0,0,0-9.8,16.09c-.79,1.61.33,2.92.84,4.34a3.74,3.74,0,0,0,.75-1.09c2.31-4.26,4.5-8.59,7-12.75a21.76,21.76,0,0,1,6.37-7,5,5,0,0,1,4-.92,5.19,5.19,0,0,1-1.84,1.88,12.88,12.88,0,0,0-4.71,4.07c-4.34,5.21-7.28,11.26-10.32,17.25-.77,1.51-.21,2.71.45,4.16a6.41,6.41,0,0,0,.52-.69c1.75-3.18,3.38-6.43,5.28-9.52s4-5.85,7.31-7.56a3.87,3.87,0,0,1,3.42-.43l-2.38,2a30.43,30.43,0,0,0-3.83,3.17,66,66,0,0,0-9.1,14.39,3.4,3.4,0,0,0,.78,4.05c.15-.24.3-.46.44-.69,2-3.38,3.78-6.86,5.92-10.12a15.73,15.73,0,0,1,6.84-6.22,15,15,0,0,1,2.43-.55l.14.38a3.15,3.15,0,0,1-.54.73c-1,.76-2.18,1.41-3.17,2.23-3.22,2.66-5.4,6.16-7.54,9.66-1.36,2.23-2.56,4.55-3.77,6.87a1.82,1.82,0,0,0,.39,2.6c.84.56,1.65,0,2.28-1.25a97.82,97.82,0,0,1,4.88-8.95,28.39,28.39,0,0,1,4.89-5.1,9.06,9.06,0,0,1,2.8-1.11l.19.41a83.48,83.48,0,0,0-6.27,7.06,59.64,59.64,0,0,0-4.78,8.52c-1.37,2.82-2.85,5.64-3.17,8.85a3.91,3.91,0,0,0,.9-1.34c1.55-3.18,3-6.43,4.69-9.52a16.21,16.21,0,0,1,5.84-6.48,14.84,14.84,0,0,1,2.79-1l.19.46a5.89,5.89,0,0,1-.75,1,34,34,0,0,0-3.55,3.09c-4,4.74-6.52,10.3-8.81,16-.22.54.15,1.33.25,2,.54-.22.72-.42.83-.66,1.4-3,2.71-6.13,4.23-9.12a22.44,22.44,0,0,1,6-7.67,5.25,5.25,0,0,1,3.76-1.2,2.89,2.89,0,0,1-.78,1.21,30.93,30.93,0,0,0-3.61,3.22c-3.7,4.58-6.19,9.84-8.54,15.2-.82,1.88,0,3.14,1,4.85.27-.65.41-1,.58-1.38,2-4.2,3.89-8.46,6.09-12.56a14.62,14.62,0,0,1,5.56-6,13.57,13.57,0,0,1,2.59-.86l.29.51c-.62.66-1.22,1.32-1.86,2a39.51,39.51,0,0,0-4.06,4.13c-3.31,4.55-5.5,9.71-7.73,14.86-.9,2.07.26,3.37,1.06,4.95.81-1.57,1.42-3.16,2.06-4.74a67.63,67.63,0,0,1,8.33-15.31,17.14,17.14,0,0,1,5.65-5.13,4.4,4.4,0,0,1,3.67-.57c-1,1.05-1.58,2.3-2.57,2.75-2.52,1.13-3.92,3.26-5.39,5.33-4.13,5.82-7,12.31-9.85,18.81-1.07,2.43.29,3.9,1.12,5.76a13.29,13.29,0,0,0,1-2.29,85.62,85.62,0,0,1,9.9-20.16c2.13-3.08,4.39-6.09,7.94-7.69A21.32,21.32,0,0,1,636.26,487.56ZM806.17,574c.23-.47.34-.67.44-.87,1.6-3.2,2.88-6.61,4.87-9.54,2.95-4.34,6.93-7.54,12.35-8.47a2.31,2.31,0,0,0,1.25-1,18.14,18.14,0,0,0,3.56-9.25,25.89,25.89,0,0,1,.72-4,1.82,1.82,0,0,0-1.17-2.46,2,2,0,0,1-1.35-2c-.11-3.69-.42-7.37-.37-11,0-2.41-.49-4.19-2.62-5.63-2.57-1.75-4.7-4.17-7.33-5.8-4.63-2.87-9.53-5.3-14.25-8-3.58-2.08-7.18-4.2-9.86-7.47a2.74,2.74,0,0,0-2.73-1.22c-1.36.19-2.62.05-3.43-1.28-.07-.11-.3-.13-.65-.27,0,.75,0,1.33,0,1.92,0,1.95,0,2-1.81,1.38q-10.06-3.22-20.1-6.49c-1.45-.46-1.5-.35-1.7,1.14a39.84,39.84,0,0,1-1.16,6.16c-.53,1.75-1.7,3.31-2.3,5.05a12.61,12.61,0,0,1-4.61,6.33c-.27.2-.5.46-.75.68l.19.44a7.72,7.72,0,0,0,1.53-.45,19.07,19.07,0,0,1,12.62-2,23.43,23.43,0,0,1,15,9.73,23,23,0,0,1,4.71,15.6c-.14,2-.83,4-.73,6a118.71,118.71,0,0,0,1.32,13.32c1,5.67,3.48,10.42,8.86,13.35C799.92,569.56,802.91,571.83,806.17,574ZM692.61,322.74c-2-.44-4.07-.49-5.72-1.36a16.07,16.07,0,0,0-5.59-2q-3.75-.48-7.53-.65c-11.34-.47-22.5,1.21-33.64,3-1.24.2-1,.94-1,1.71,0,1.11.85.75,1.45.66,1.93-.3,3.86-.62,5.79-1,10.06-1.87,20.16-3.26,30.44-2.53,5.07.35,10,1.12,14.19,4.42a1.22,1.22,0,0,0,1.18-.11c2.61-2.51,5.9-3.6,9.29-4.26,10-1.95,20-1.42,30.08-.24,5.55.66,11.1,1.36,16.66,2,1.14.13,1.83-.47,1.74-1.58a10.66,10.66,0,0,0-.39-1.76c-2.54-.21-4.8-.31-7-.58-12-1.45-23.93-2.7-36-1.22a57.78,57.78,0,0,0-9.08,2,25.84,25.84,0,0,0-4.48,2.27l-.23-.3Zm101,75.33a4.24,4.24,0,0,0-.11-.88,21.53,21.53,0,0,0-4-7.07c-2.59-2.78-5.66-4.55-9.38-4.6-4.17-.06-8.34.39-12.51.7-.31,0-.81.65-.82,1,0,2.28.06,4.56.09,6.84,0,.76.35,1.09,1.13,1,1.11-.09,2.23-.12,3.35-.19a18.52,18.52,0,0,1,9,1.3,17.75,17.75,0,0,0,8,1.75c1.16,0,2.33.08,3.49.12C792.45,398.09,793,398.07,793.63,398.07ZM740.09,311a23.2,23.2,0,0,0-12-3.58c-.42,0-.84,0-1.26-.07a115.35,115.35,0,0,0-23.86.72c-2.9.4-5.78,1.09-7.92,3.38.65,1.21.73,1.28,1.73.78a30.7,30.7,0,0,1,10.39-2.62,112.19,112.19,0,0,1,27.88.81C736.72,310.67,738.41,310.82,740.09,311Zm50.29,98.12-.48.2c-.91-.77-1.15-2.38-2.84-2.37-.14,2.09-.88,3.76-2.92,4.58a6.42,6.42,0,0,1-5.58-.58c1.43,1.7-1,1.49-1,2.59a9.61,9.61,0,0,0,7.28,1.91,8,8,0,0,0,7.45-7.54c0-.63-.13-1.66-.5-1.82a8.43,8.43,0,0,0-2.7-.23C789.63,407.19,790,408.16,790.38,409.13ZM694.7,313.06c-.87-.12-1.56-.2-2.24-.32a22.33,22.33,0,0,1-2.84-.58c-1.58-.5-3.08-1.47-4.67-1.62-3.38-.32-6.79-.33-10.19-.33-10.29,0-20.28,2.12-30.24,4.43,2.22-.25,4.43-.57,6.62-1a118.58,118.58,0,0,1,26.71-2.26,31.71,31.71,0,0,1,13,2.81C692.92,315.21,693,315.22,694.7,313.06Zm5.55,1.17.08.5c.44-.07.87-.16,1.31-.2,4.21-.4,8.42-1,12.65-1.14,9.5-.39,18.86,1.26,28.25,2.32,1.92.21,3.84.47,5.79.72-.05-1.43-.13-1.55-1.14-1.68-1.39-.19-2.78-.36-4.17-.52-12-1.44-23.93-2.54-36-1.11C704.77,313.39,702.51,313.86,700.25,314.23ZM499.37,342.1l.13.3,24.85-7.85c-1.81-1.49-3.38-2.28-5.46-1.33-6.15,2.79-12.34,5.51-18.51,8.27A11.78,11.78,0,0,0,499.37,342.1ZM639,318.62l.11.43a7.08,7.08,0,0,0,1,0c4.09-.68,8.19-1.33,12.28-2.06a99.88,99.88,0,0,1,25.07-1.49c4.4.34,8.75,1,12.46,3.66,1.24.87,1.68.33,2.2-.72-1-.35-2-.64-2.93-1a33.51,33.51,0,0,0-5-1.9,63.48,63.48,0,0,0-18-.6c-8.63.78-17.21,2.13-25.81,3.25A8.74,8.74,0,0,0,639,318.62ZM769.32,564.93l-5,4.69a.66.66,0,0,0-.2.5c.31,1.45.64,2.89,1,4.68.38-1.4.38-1.4,1.67-2.79a.91.91,0,0,0,.14-.38c.49-1.5,1-3,1.48-4.48a5.8,5.8,0,0,1,.66-.94,65.8,65.8,0,0,0,2.33,7.14,62.38,62.38,0,0,0,3.69,6.22l.59-.31C771.83,575.27,771.77,569.64,769.32,564.93Zm-229.38-121c.32-.49.52-.74.66-1,.89-1.8.87-1.78-.8-2.93-1.26-.87-2.53-1.75-3.72-2.71-1.79-1.45-3.52-3-5.3-4.5a2.91,2.91,0,0,0,2.08,3.08,2.26,2.26,0,0,1,1.3,1.27C534.93,440.36,537.8,441.69,539.94,443.89Zm117-135,0-.35c-6.21.77-12.43,1.53-18.64,2.35a1.26,1.26,0,0,0-.76,1c0,.67.3,1.26,1.23,1.05Q647.91,310.93,657,308.93ZM545.29,469.05c-3.18-3.25-5.62-7.18-9.38-10a4.65,4.65,0,0,0,.54,2.65A29,29,0,0,0,545.29,469.05Zm-6.58-20.49.47-.08c.07-1.13.63-2.63.11-3.3a35,35,0,0,0-4.57-4.26l-.33.27A11,11,0,0,0,538.71,448.56Zm-3.64-1.72c-.77,2.56,1.47,6.25,4.18,7.79C539.89,451,537.39,449.05,535.07,446.84Zm4.18,13c.8-2.18.7-2.52-.89-3.91-.8-.7-1.5-1.52-2.26-2.26a5.75,5.75,0,0,0-.74-.53A6.57,6.57,0,0,0,539.25,459.84ZM742,579.39c-1.91,2.1-3.72,15.54-2.24,17.59C740.15,591.07,740,585.09,742,579.39Zm22.58,3.21c-.51-.81-.91-1.39-1.25-2-1.42-2.6-3.11-5.1-3.17-8.24,0-.27-.38-.53-.58-.8a4.63,4.63,0,0,0-.49.86,1.49,1.49,0,0,0,0,.69c.58,3.62,2.71,6.47,4.73,9.37C763.9,582.54,764.09,582.52,764.56,582.6ZM763,570.75l-.39-.19c-.26.33-.79.71-.75,1a14.41,14.41,0,0,0,.87,4.06,61.81,61.81,0,0,0,3.24,5.7,2.85,2.85,0,0,0,.6.54C765,578.24,762.37,575.05,763,570.75Zm-4.57,13.07c-2.55-3.77-5.16-7.49-6.25-12.36C751.16,573.56,755.75,582.23,758.42,583.82ZM587.17,373.12l7.26-6.25-.23-.27A14.32,14.32,0,0,0,587.17,373.12ZM768.94,572.85c-.08.18-.17.29-.14.35,1.11,2.32,2.23,4.65,3.39,6.95.1.19.55.2.83.29a2.94,2.94,0,0,0-.1-1.09c-1.14-2-2.33-4-3.52-6A3.43,3.43,0,0,0,768.94,572.85Zm-18.28,9.94-.54.24a27.48,27.48,0,0,0,.92,2.69c.08.18.65.26,1,.19s.41-.58.32-.72C751.81,584.36,751.22,583.58,750.66,582.79Zm16.85-7.34c.07,2.15,1.56,5,2.85,5.47Zm-20.39,7.41-.55-.24-1.41,3.64.59.23C746.9,585.57,746.1,583.85,747.12,582.86Zm1.55-6.64.42-.11-1-4.08-.58.16ZM719.59,412.33l-.06-.43-4.91.94.06.33ZM757.1,572.06c-.79,1.65.15,2.92.91,4.23C757.71,574.88,757.4,573.47,757.1,572.06Zm-10.31,17.85-.67.13c.14.88.29,1.76.43,2.64l.7-.11C747.1,591.68,747,590.8,746.79,589.91Zm1.88-5.23h-.4a4.67,4.67,0,0,0-.22,1.31c0,.28.35.53.54.8.15-.28.42-.56.42-.84A5.52,5.52,0,0,0,748.67,584.68ZM668.08,306.57l.07.64,2.23-.27,0-.48Z" transform="translate(-440.29 -290.11)"/><path class="cls-4" d="M689.78,619.05c2.5-5.24,3.34-10.86,3.93-16.52l-.6-.25a10.1,10.1,0,0,0-.74,1.74c-.82,3.54-1.55,7.1-2.41,10.63a25.07,25.07,0,0,1-1.32,3.31c-2.46-1.36-3.21-2.87-2.42-5.14,1.39-4,2.8-7.9,4.44-11.75.57-1.36,1.84-2.41,2.78-3.61.44-.57.86-1.15,1.29-1.73l-.3-.45a8,8,0,0,0-1.82.78c-2.66,2-4.07,4.83-5.17,7.82-1,2.75-1.79,5.59-2.68,8.38-.1.32-.23.62-.35.94l-.38-.12c.25-1.08.45-2.18.74-3.26a57.45,57.45,0,0,1,5.05-13.75,30.76,30.76,0,0,1,2.67-3.52c.49-.63,1-1.27,1.44-1.9l-.42-.52a15.49,15.49,0,0,0-2.42,1.48,17.5,17.5,0,0,0-4.67,7.71c-1.17,3.48-2.11,7-3.15,10.57-.15.51-.29,1-.45,1.59-2.09-1.16-2.69-2.18-2-4.12q2.14-6,4.66-11.81a13.76,13.76,0,0,1,2.27-2.79c.51-.62,1-1.26,1.7-2.18a3.81,3.81,0,0,0-3.68,1.74,46.21,46.21,0,0,0-3.86,6.76,76,76,0,0,0-2.46,7.43c-.09.3-.22.59-.39,1a4.21,4.21,0,0,1-1.79-3.82,12.28,12.28,0,0,1,.4-2.06,2.2,2.2,0,0,0-.9-2.54,8.21,8.21,0,0,1-1.59-2.26.93.93,0,0,1,0-.89c1.06-1,.6-2.13.41-3.27-.76-4.74-1.62-9.47-2.18-14.23a12.25,12.25,0,0,1,.87-7,7.45,7.45,0,0,0,.36-2.1l-.4-.2-1.83,1.94c-1-3,.94-5.6,1-8.76a5.54,5.54,0,0,0-2.42,3.38A23.92,23.92,0,0,0,671,576c.84,5.05,1.92,10.07,2.9,15.1.06.3.09.61.2,1.31a6,6,0,0,1-.79-1c-1.87-4.63-3.79-9.26-4.52-14.24a28.59,28.59,0,0,1,.08-4.13c0-.75-.06-1.5-.11-2.56-1.75,1.32-1.52,3-2,4.68-1.45-2.68,0-5.41-.6-8.31a4.05,4.05,0,0,0-1.68,3.3,23.6,23.6,0,0,0,.12,3.76c.13,1.19.44,2.35.49,3.56-1.92-4.93-3.49-9.93-2.64-15.41-1.83,1.25-2,3-1.83,4.81s.52,3.55.54,5.45c-.73-1.27-1.37-2.6-2.2-3.79a6.43,6.43,0,0,1-1-5.16c.63-3.47,1.18-7,1.77-10.44l.42.06q-.44,3.9-.88,7.79a10,10,0,0,0-.19,1.53,2.77,2.77,0,0,0,.37.91c.31-.18.77-.29.88-.55a16.13,16.13,0,0,0,.58-2.11c.92.79,1.7.53,1.91-.78.3-1.89.4-3.81.77-5.68.78-4,1.67-7.93,2.53-11.89a3.47,3.47,0,0,1,.7-1.36A148.12,148.12,0,0,0,664.24,559l1.58-.2a4.87,4.87,0,0,0-.06,1.12,6,6,0,0,0,.46,1.12c.34-.26.93-.49,1-.8a2,2,0,0,1,1.61-2c.33-.08.59-.9.67-1.41.38-2.35.68-4.71,1-7.06a2.85,2.85,0,0,1,.47-1.32v4.64c1.41-.29,1.28-1.3,1.41-2.11.35-2.39.67-4.78,1-7.16h.37c0,.68,0,1.37-.12,2-.12,1.2-.27,2.4-.43,3.61-.1.81,0,1.68.92,1.66.4,0,1-.88,1.13-1.44.43-2.29.52-4.66,1.06-6.91,1-4,2.14-7.9,3.28-11.83a3.41,3.41,0,0,1,1.29-1.66,1.53,1.53,0,0,1,0,.59c-1.93,5.55-2.5,11.37-3.16,17.16a4.72,4.72,0,0,0,.31,1.43c.34-.45.88-.86,1-1.35.36-2,.43-4,.88-5.94.94-4.08,2-8.14,3.14-12.16a14.45,14.45,0,0,1,1.94-3.17c.41-.64.78-1.31,1.16-2l-.43-.45a16.44,16.44,0,0,0-2.15,1.6,2.75,2.75,0,0,1-2.21.91c-2,.11-4.06.7-5.3,2.75a59.74,59.74,0,0,1-4.68,6.56c-.12-2.28,2.78-3.05,2.63-5.46a2.27,2.27,0,0,0-.85.15c-3.62,2.67-7.53,5-9.56,9.35-1,2.14-2.62,4-3.53,6.15-2.16,5.12-2.94,10.58-3.46,16.08-.06.56-.22,1.12-.42,2.08-1.63-2.47-3.06-4.58-4.41-6.73-.18-.28,0-.82.05-1.21A69.27,69.27,0,0,1,659,538.15c.45-.75,1.37-1.19,1.94-1.88a32.71,32.71,0,0,0,2.74-3.67c2-3.27,3.75-6.76,6-9.87,1.54-2.13,3.78-3.74,5.68-5.61,4.59-4.55,9.07-9.23,14.63-12.69a13.06,13.06,0,0,1,5.58-2,2.07,2.07,0,0,1,1.13.4,11.48,11.48,0,0,0,11.34.8,2.26,2.26,0,0,1,2.71.42c3.09,2.45,6.33,4.74,9.53,7.07a22.22,22.22,0,0,0,2,1.16c-4.73,2.24-7.29,6.29-10.06,10.14-1.17,1.62-3,2.16-4.79,2.68-.76.22-.89-.42-.63-1,.64-1.32,1.36-2.62,2.07-3.91.28-.52.63-1,.95-1.49l-.26-.33c-.48.25-1.11.39-1.4.78a37,37,0,0,0-2.31,3.62c-.3.51-.36,1.17-.64,1.7-.15.3-.53.48-.81.71,0-.38-.23-.81-.11-1.12.36-.9.84-1.76,1.27-2.63l.39-.76c-.95.13-1.45.56-2,1.82-.39.86-.7,1.76-1.12,2.84-.92-1.1-.18-1.86.09-2.57a14.73,14.73,0,0,1,1.29-2.2c-2.26.43-4.54,7.55-3.34,11l.93-4.26.51.09v4.06l.49.08.84-4.07.64.1L703,537.68l.66.19a6.54,6.54,0,0,0,.61-1.42c.37-2.25.67-4.51,1-6.77s1.13-2.79,3.74-2c-.63,1.16-1.27,2.27-1.84,3.42a3.38,3.38,0,0,0-.15,1.12c.4-.14,1-.15,1.15-.43.83-1.24,1.54-2.56,2.32-3.83a9.59,9.59,0,0,1,.85-1.08l.41.28L706.13,537c1.24.63,1.57-.14,2-.75,1.88-3,3.8-6,5.6-9,.85-1.43,2.2-1.84,3.84-2.5l-7.59,12.83c1.15.59,1.6,0,2-.66,1.14-1.87,2.18-3.8,3.38-5.64,1.35-2.06,2.82-4,4.25-6.07a9.84,9.84,0,0,1,.83-.89l.48.12a5.48,5.48,0,0,1-.31,1.72c-2.19,3.69-4.45,7.33-6.67,11a15,15,0,0,0-.72,1.5c1.22.5,1.56-.32,2-1,1.8-2.89,3.58-5.79,5.37-8.68.2-.31.42-.61.63-.92.43-.62.84-.7,1.27,0a13,13,0,0,0,8.54,6,2.17,2.17,0,0,1,1.07,1,15.16,15.16,0,0,0,1.3,2.31c1.68,1.74,1.79,3.88,1.88,6.09.05,1.14-.35,1.53-1.46,1.37-1.71-.25-3.43-.43-5.14-.64-3.32-.41-6.66-1.14-10.21.78.07-1.15.07-2,.18-2.81.15-1.1.39-2.2.59-3.3s-.37-1.36-1.27-1a4.89,4.89,0,0,0-3.12,3.86,39.48,39.48,0,0,0-.4,4.87,6.4,6.4,0,0,1-2.35,4.57,1,1,0,0,1-.88.21c-2.11-.71-4.24-1.4-6.28-2.3-.37-.16-.53-1.26-.47-1.89.16-1.55.51-3.08.79-4.64a4.12,4.12,0,0,0-4.38,3.37c-.36,1.77-.36,3.61-.59,5.41-.12,1-.38,1.89-.57,2.84l-.67,0c-.24-1.76-.53-3.52-.7-5.29a20.89,20.89,0,0,1-.21-5.28c.28-1.65,1.25-3.19,1.68-5-.57.55-1.17,1.07-1.72,1.64a8,8,0,0,0-2.38,6.61c.21,2,.37,4.06.56,6.2a3,3,0,0,1-.71-.18c-1.8-1-1.8-1-2.88.79q-1.23,2-2.41,4.1a7.14,7.14,0,0,1-3.41,3.45c-2.06.87-2.59,3-2.84,5.13a6.58,6.58,0,0,1-.38,2.17,1.86,1.86,0,0,1-1.48.88c-.39,0-.89-.86-.95-1.38-.14-1.34,0-2.7-.09-4s-.36-1.39-1.44-.7c-2.15,1.37-2.52,3.45-2.31,5.75.1,1.12.31,2.22.42,3.33a5.5,5.5,0,0,1-.93,4.24,4.66,4.66,0,0,0-.4,2.52c0,.21.63.59,1,.61a6.27,6.27,0,0,0,1.64-.38c-.57,4.45-1.11,8.75-1.66,13.13,1.41.09,1.46-.7,1.59-1.49q1-5.94,2-11.87a5,5,0,0,1,.46-1.74,4.09,4.09,0,0,1,1.37-1.31,31.22,31.22,0,0,1,2.92-1.54,11.18,11.18,0,0,1,2.09-.88c1.6-.39,3.23-.68,5-1-.07,3.1-.84,5.85-3.76,7.71,2.2.14,3.23-1.57,4.88-2.69a14,14,0,0,1,0,1.61c-.31,2.59-.67,5.18-.93,7.78a5.22,5.22,0,0,0,.38,1.68c.39-.51,1-1,1.12-1.55.47-2.71.8-5.44,1.19-8.17a52.75,52.75,0,0,1,3.62-13.47,25.26,25.26,0,0,1,2.17-3.36,8.5,8.5,0,0,0,1.15-2.56c-3.8,1.21-4.8,4.65-6.2,7.76l-.48-.13a32.23,32.23,0,0,1,.62-4.94,11.17,11.17,0,0,1,1.82-3.13,2.18,2.18,0,0,1,1.08-.81,6,6,0,0,0,4.55-5.26,4.62,4.62,0,0,1,.22-.74c2.22.79,4.42,1.49,6.55,2.37,1.34.56,1.3,1,.25,2a1,1,0,0,0-.18,1c.41.69,1,1.31,1.93.88,1.75-.78,3.5-1.55,5.27-2.28,1.51-.62,3-1.22,4.57-1.74a5.77,5.77,0,0,1,6.9,2.25,7.49,7.49,0,0,0,5,3.14c3.54.52,7.11.88,10.64,1.3.38-1.92,0-2.51-1.72-2.69-3.19-.36-6.39-.69-9.58-1.14a6.46,6.46,0,0,1-4.7-3c-.24-.36-.92-.43-1.39-.65-2.45-1.12-5-1.92-7.73-.8l-.11-.42,2.75-2.61c-2.28-1.45-3.6.21-5.14,1.28.28-1.36.54-2.49.76-3.62s1.1-1.26,1.92-1.22c2.93.14,5.86.35,8.78.59a33,33,0,0,1,4.43.63,18.86,18.86,0,0,1,2.38,1.11c.36.13,1.14.13,1.17,0,.85-2.59,3-2.44,5-2.42,3.28,0,3-.84,3.24,3.09q.29,4.25.48,8.51c.06,1.18.56,1.71,1.75,1.6.79-.08,1.59,0,2.38-.1a1.93,1.93,0,0,1,2,1,2.31,2.31,0,0,0,1.79.57c3.4-.18,6.79-.55,10.18-.64a7.56,7.56,0,0,1,3.45.91c1.47.76,1.47,1.45.52,2.8-2,2.81-4.94,3.61-8.07,3.78-4,.22-8,.12-12,.23-5.78.14-11.56.38-17.34.5-3,.07-6,.21-8.8-1.08a18.36,18.36,0,0,1-3.71-2.8c-.46-.39-.69-1.36-1.46-.69-.22.19,0,1.19.3,1.62,3.64,5.33,8.82,7.09,15.07,6.63,4.27-.31,8.57-.3,12.86-.47,1,0,1.28.33,1.54,1.3a29.62,29.62,0,0,0,2.13,5.87,3.67,3.67,0,0,1,0,3.55c-1.32-.78-.12-1.77-.34-2.84a9.52,9.52,0,0,0-1.38.8c-2.18,1.84-2.82,4.46-3.32,7.08-.39,2-.51,4.16-.75,6.24a3.37,3.37,0,0,1-.5,1.54c-.23-6.68.24-13.23,4-19.18l-.54-.33-2.09,1.41c-.08-.4-.14-.77-.24-1.31a6.08,6.08,0,0,0-3.34,3.79c-1.83,4.41-1.86,9.1-2.07,13.76,0,.23,0,.47,0,.7,0,2,.37,4-1.61,5.89.09-8.33-.33-16.43,4.31-23.75l-.46-.34a6.09,6.09,0,0,0-1.36.8,11.36,11.36,0,0,0-2.84,5.68,48.69,48.69,0,0,0-1.07,15.16c.32,4-1.17,6.83-3.64,9.65-3.39,3.85-6.53,7.9-9.78,11.87h-15.4l2.33-3-.42-.43c-2,.35-3.14,1.78-4.15,3.43h-.84c1.06-1.7,2.11-3.41,3.21-5.08a25.64,25.64,0,0,1,1.68-2.09c-2.54-.31-6.17,3.73-6.85,7.17ZM704.9,593.5l-.5-.11a5,5,0,0,1,0-.67c.94-5.37,1.7-10.78,2.89-16.1.7-3.15,1.78-6.28,4.26-8.67a8.25,8.25,0,0,0,1.14-2.33,5.46,5.46,0,0,0-3.52,2.28,19.11,19.11,0,0,0-3.79,8.63c-1.09,5.76-1.88,11.59-2.71,17.4-.07.47.5,1,1,1.88-.34,1.68-3.14,2.42-2.87,5.06,1.79-1.66,4.16-1.88,6.18-2.89a2.7,2.7,0,0,0,.34-.25c.24-.18.49-.35.84-.59l-.38,2.08a17.87,17.87,0,0,0,2-1.06c2.62-1.92,3.81-4.77,4.9-7.66,2.36-6.26,2.94-12.89,4.06-19.41a3.31,3.31,0,0,0-.24-1.11,4,4,0,0,0-1.14.79,3.41,3.41,0,0,0-.36,1.34c-.39,2.15-.74,4.32-1.15,6.47a55,55,0,0,1-4.93,15.54A13.68,13.68,0,0,1,709.5,596l-.32-.22c.07-.21.12-.42.2-.62A104,104,0,0,0,713,585c1.07-4.24,1.62-8.61,2.33-12.93a4.67,4.67,0,0,0-.21-1.94c-1.16,0-1.13,1-1.31,1.76a2.74,2.74,0,0,0-.05.28c-1.12,5.09-2.11,10.22-3.44,15.26a51.56,51.56,0,0,1-3,7.21,4.81,4.81,0,0,1-1,1.11c-.22-.41-.23-.64-.14-.84,3.14-7,4-14.63,5.13-22.13.05-.33-.22-.7-.34-1.06-.32.22-.81.36-.94.66a8.54,8.54,0,0,0-.55,2c-.71,3.62-1.29,7.26-2.14,10.84C706.77,588.05,705.76,590.76,704.9,593.5ZM727,594.59h.58c0,3.38,0,6.76,0,10.14a4,4,0,0,0,.5,1.3c.33-.43.91-.84.95-1.3.15-1.38,0-2.79.11-4.19.41-5.24.77-10.49,1.37-15.72a11.65,11.65,0,0,1,2.46-6.45,7.82,7.82,0,0,0,.95-2.45l-.33-.2-1.37.58c-1.15-.81-1.92-.56-3.13,1.24-.74,1.1-1.3,2.32-1.93,3.49a33.63,33.63,0,0,1,.48-4.83,3.67,3.67,0,0,0-.29-1.22c-.39.27-1,.46-1.11.83a13,13,0,0,0-.57,2.58,83.33,83.33,0,0,1-3.89,16.44c-.9,2.4-1.77,4.81-3.79,6.61a9.18,9.18,0,0,0-1.44,2.32l.38.34a4.64,4.64,0,0,0,1.32-.58c1-1,2.36-1.86,3-3.08,1.35-2.74,2.35-5.66,3.49-8.51.21-.53.39-1.07.6-1.66v6.25c0,2.85,0,5.69,0,8.54,0,.35.3.69.46,1,.34-.26.81-.46,1-.8a3.08,3.08,0,0,0,.18-1.36Q727,599.25,727,594.59Zm-41.41-57.3.35.34c2.1-1.15,4.2-2.3,6.29-3.48a1.06,1.06,0,0,0,.35-.58q1.14-3.37,2.25-6.76c.27-.79,0-1.15-.86-1.1-1.16.08-2.33.18-3.49.18a1.5,1.5,0,0,0-1.59,1.24c-.77,2.39-1.62,4.76-2.41,7.14C686.12,535.27,685.85,536.28,685.56,537.29Zm26.12,63.76.38.34a4.94,4.94,0,0,0,3.22-2.08,20.68,20.68,0,0,0,3.71-7.13c2-6,2.61-12.37,3.73-18.59a5.19,5.19,0,0,0-.06-1.22c-1.47.08-1.55,1.08-1.7,2-1,5.69-1.84,11.4-3.81,16.87-1,2.8-1.91,5.64-4.25,7.74A7.92,7.92,0,0,0,711.68,601.05Zm2,1.63.45.34a8.31,8.31,0,0,0,4.24-3.54,38.17,38.17,0,0,0,4.41-12.3c.78-3.82,1.32-7.7,1.9-11.57a6.06,6.06,0,0,0-.24-1.76c-.42.52-.86,1-1.26,1.57-.09.13,0,.36-.08.55-.92,5.78-1.91,11.57-4,17.08-1,2.68-1.81,5.49-4.18,7.46A7.41,7.41,0,0,0,713.66,602.68ZM709.08,566l-.56-.5a20.21,20.21,0,0,0-2.79,2.32A17.47,17.47,0,0,0,702,576c-1.06,5.62-1.87,11.29-2.73,17a4.65,4.65,0,0,0,.3,2c1.25,0,1.09-1.12,1.24-1.94,1-5.32,1.75-10.67,2.89-15.94.71-3.26,1.73-6.49,4.24-9A8.74,8.74,0,0,0,709.08,566Zm-2.89-3.62a4.12,4.12,0,0,0-3.82,2.31,55.54,55.54,0,0,0-3.29,7.5c-2,5.78-2.12,11.89-2.93,17.88a4.21,4.21,0,0,0,.33,1.47c.4-.45,1-.84,1.15-1.35a30.9,30.9,0,0,0,.56-3.72c.78-6.21,1.78-12.37,4.28-18.16a27.27,27.27,0,0,1,2.15-3.36C705.11,564.22,705.57,563.43,706.19,562.41Zm30.87,13.83-.53-.43a16.77,16.77,0,0,0-2.17,2.3,16.3,16.3,0,0,0-2.4,7.95c-.31,5-.39,10-.51,15.05,0,.45.39.9.61,1.35a8.86,8.86,0,0,0,.78-1.31,3.7,3.7,0,0,0,.06-1.11c.12-3.63.06-7.28.43-10.88.39-3.85.63-7.82,3.09-11.15A6.21,6.21,0,0,0,737.06,576.24Zm-57.73-23.31c1.11-.39,1.07-.4,1.33-1.74,1-5.11,1.93-10.24,3.06-15.32a11.12,11.12,0,0,1,3-5.75,7.39,7.39,0,0,0,1-1.81l-.41-.37a11.15,11.15,0,0,0-1.64,1,13,13,0,0,0-3.49,6.12c-1.72,5.45-2.25,11.13-3,16.76A5,5,0,0,0,679.33,552.93Zm19.34-29.09c-3.14,1.14-6.2,9.14-4.69,12.57.31-1.12.52-1.92.71-2.62l.39.94h.37C696.39,531.06,696.24,527.06,698.67,523.84ZM696.84,535c3-4.45,2.14-10,5.26-14.33C699.61,521.12,696.44,529.92,696.84,535Z" transform="translate(-440.29 -290.11)"/><path d="M570.49,619.05a19.42,19.42,0,0,0,6.08-14.23c0-1.09.19-2,1.53-2a2.11,2.11,0,0,1,2.08,2.3,14.12,14.12,0,0,0,1.32,8,57.68,57.68,0,0,0,4.12,5.93Z" transform="translate(-440.29 -290.11)"/><path d="M610.54,619.05c-.07-3.62-.17-7.25-.19-10.87a2,2,0,0,1,.5-1.45c.24-.19,1,0,1.38.25,2.15,1,4.27,2,6.4,3.07,1.19.57,1.48,1.44.47,2.07-2.32,1.45-2.53,3.6-2.4,6,0,.33,0,.65,0,1Z" transform="translate(-440.29 -290.11)"/><path d="M700.7,619.05c.68-3.44,4.31-7.48,6.85-7.17a25.64,25.64,0,0,0-1.68,2.09c-1.1,1.67-2.15,3.38-3.21,5.08Z" transform="translate(-440.29 -290.11)"/><path d="M703.5,619.05c1-1.65,2.18-3.08,4.15-3.43l.42.43-2.33,3Z" transform="translate(-440.29 -290.11)"/><path d="M566.81,573.57v-8.8c0-.19-.08-.41,0-.56.92-1.7-.39-2.54-1.31-3.59a18.53,18.53,0,0,1-4.66-15.8c1.18-7.83,2.39-15.66,3.57-23.5.19-1.2.26-2.41.47-3.6.17-1,.66-1.27,1.57-.62,1.6,1.13,3.24,2.2,4.86,3.29,1.39.94,1.42,1.54-.07,2.23a3.66,3.66,0,0,0-2.13,3.06c-1.05,6.77-2.22,13.53-3.08,20.32a48.52,48.52,0,0,0-.09,9.18c.18,2.87,1.85,5.1,3.89,7.07.42.41.48,1.18.8,1.72a2.68,2.68,0,0,0,1,1c.91.49,1,.92.25,1.7a3.34,3.34,0,0,0-1,2c.17,6.33.35,12.67.77,19a8,8,0,0,0,3.75,6.28c.42.28.57,1,.84,1.45a5,5,0,0,1-1.71-.31c-5.37-3.22-7.54-8.12-7.39-14.24.06-2.43,0-4.85,0-7.28Z" transform="translate(-440.29 -290.11)"/><path d="M562.71,439.35c1,.26,1.65.46,2.29.57,1,.15,1.27.67,1.33,1.62.31,4.88.6,9.76,1.07,14.62a33.94,33.94,0,0,0,1.27,5.85,8.05,8.05,0,0,0,4.24,4.94c.35.19.46.83.68,1.26-.46,0-1,.25-1.35.06-4.81-2.62-8.4-6.2-8.88-12-.44-5.24-.82-10.49-1.17-15.73C562.16,440.12,562.55,439.69,562.71,439.35Z" transform="translate(-440.29 -290.11)"/><path class="cls-4" d="M636.26,487.56a21.32,21.32,0,0,0-3.31.94c-3.55,1.6-5.81,4.61-7.94,7.69a85.62,85.62,0,0,0-9.9,20.16,13.29,13.29,0,0,1-1,2.29c-.83-1.86-2.19-3.33-1.12-5.76,2.88-6.5,5.72-13,9.85-18.81,1.47-2.07,2.87-4.2,5.39-5.33,1-.45,1.62-1.7,2.57-2.75a4.4,4.4,0,0,0-3.67.57,17.14,17.14,0,0,0-5.65,5.13A67.63,67.63,0,0,0,613.11,507c-.64,1.58-1.25,3.17-2.06,4.74-.8-1.58-2-2.88-1.06-4.95,2.23-5.15,4.42-10.31,7.73-14.86a39.51,39.51,0,0,1,4.06-4.13c.64-.64,1.24-1.3,1.86-2l-.29-.51a13.57,13.57,0,0,0-2.59.86,14.62,14.62,0,0,0-5.56,6c-2.2,4.1-4.08,8.36-6.09,12.56-.17.36-.31.73-.58,1.38-1-1.71-1.8-3-1-4.85,2.35-5.36,4.84-10.62,8.54-15.2a30.93,30.93,0,0,1,3.61-3.22,2.89,2.89,0,0,0,.78-1.21,5.25,5.25,0,0,0-3.76,1.2,22.44,22.44,0,0,0-6,7.67c-1.52,3-2.83,6.08-4.23,9.12-.11.24-.29.44-.83.66-.1-.67-.47-1.46-.25-2,2.29-5.68,4.83-11.24,8.81-16a34,34,0,0,1,3.55-3.09,5.89,5.89,0,0,0,.75-1l-.19-.46a14.84,14.84,0,0,0-2.79,1,16.21,16.21,0,0,0-5.84,6.48c-1.71,3.09-3.14,6.34-4.69,9.52a3.91,3.91,0,0,1-.9,1.34c.32-3.21,1.8-6,3.17-8.85a59.64,59.64,0,0,1,4.78-8.52,83.48,83.48,0,0,1,6.27-7.06l-.19-.41a9.06,9.06,0,0,0-2.8,1.11,28.39,28.39,0,0,0-4.89,5.1,97.82,97.82,0,0,0-4.88,8.95c-.63,1.22-1.44,1.81-2.28,1.25a1.82,1.82,0,0,1-.39-2.6c1.21-2.32,2.41-4.64,3.77-6.87,2.14-3.5,4.32-7,7.54-9.66,1-.82,2.13-1.47,3.17-2.23a3.15,3.15,0,0,0,.54-.73l-.14-.38a15,15,0,0,0-2.43.55,15.73,15.73,0,0,0-6.84,6.22c-2.14,3.26-4,6.74-5.92,10.12-.14.23-.29.45-.44.69a3.4,3.4,0,0,1-.78-4.05,66,66,0,0,1,9.1-14.39,30.43,30.43,0,0,1,3.83-3.17l2.38-2a3.87,3.87,0,0,0-3.42.43c-3.27,1.71-5.44,4.54-7.31,7.56s-3.53,6.34-5.28,9.52a6.41,6.41,0,0,1-.52.69c-.66-1.45-1.22-2.65-.45-4.16,3-6,6-12,10.32-17.25a12.88,12.88,0,0,1,4.71-4.07A5.19,5.19,0,0,0,616.6,450a5,5,0,0,0-4,.92,21.76,21.76,0,0,0-6.37,7c-2.47,4.16-4.66,8.49-7,12.75a3.74,3.74,0,0,1-.75,1.09c-.51-1.42-1.63-2.73-.84-4.34a78.06,78.06,0,0,1,9.8-16.09,11.68,11.68,0,0,1,4.41-3.77c.78-.32,1.34-1.18,2.27-2a5.45,5.45,0,0,0-4.07.86,21.93,21.93,0,0,0-7.14,7.93c-2,3.36-3.75,6.86-5.62,10.3-.17.32-.36.63-.61,1.08a2.71,2.71,0,0,1-.48-3c2.72-5.48,5.66-10.84,9.73-15.46A31,31,0,0,1,609.8,444a14.17,14.17,0,0,0,2.06-2,4.24,4.24,0,0,0-3.55.63,18.16,18.16,0,0,0-6.08,6.09C600,452.26,598,456,596,459.6c-.16.28-.28.59-.45.87-.06.11-.21.16-.46.33-.61-1.64-1.29-3-.32-4.86,2.92-5.54,5.89-11.05,10.33-15.55a38.68,38.68,0,0,1,4.17-3.2,7.83,7.83,0,0,0,.89-1,5.22,5.22,0,0,0-4,1,31.67,31.67,0,0,0-5.24,5.17c-2.32,3.3-4.23,6.9-6.28,10.39-.4.67-.67,1.41-1,2.11l-.47-.08a4.79,4.79,0,0,1,.2-1.54c3.06-6.36,6.39-12.56,11.14-17.86a23.88,23.88,0,0,1,3.07-2.34c.77-.61,1.49-1.27,2.24-1.91l-.29-.59a14.14,14.14,0,0,0-2.63.71,16,16,0,0,0-6.61,6.28c-2.44,4-4.64,8.07-6.94,12.12-.29.52-.51,1.08-.79,1.65-1-1-1.53-3-1-4,2.72-5.43,5.58-10.79,9.59-15.4a35.32,35.32,0,0,1,4.14-3.42c.73-.61,1.41-1.28,2.11-1.92l-.25-.53a16.63,16.63,0,0,0-2.77.77,16.44,16.44,0,0,0-6.7,6.39c-2.31,3.66-4.34,7.5-6.48,11.26-.16.27-.33.53-.69,1.12-.67-2.45-2-4.29-.52-6.8,3.35-5.5,6.6-11.06,11.21-15.64a26.85,26.85,0,0,1,3.3-2.29c.77-.55,1.51-1.15,2.27-1.73l-.18-.55a14.27,14.27,0,0,0-2.65.49,15.29,15.29,0,0,0-6.85,5.81c-2.75,3.92-5.22,8-7.81,12.08-.24.37-.45.77-.68,1.15l-.44-.08a3.94,3.94,0,0,1,.16-1.4c3.46-6.13,6.86-12.31,11.66-17.55a11.74,11.74,0,0,1,4.71-3.63,8.69,8.69,0,0,0,2.2-1.75l-.23-.54a16.67,16.67,0,0,0-2.95.68,17.17,17.17,0,0,0-6.24,5.07,80.9,80.9,0,0,0-9,14.15c-.26.48-.56.95-.82,1.39a2.25,2.25,0,0,1-.37-.09c-.08-1.61-.76-3.53-.12-4.77a58.77,58.77,0,0,1,11.62-16.34,34.76,34.76,0,0,1,4.22-2.87,8.68,8.68,0,0,0,1-1.05,5.45,5.45,0,0,0-3.77.6,19.83,19.83,0,0,0-6.68,6.26c-2.23,3.15-4.21,6.48-6.29,9.74-.27.41-.51.85-.76,1.27l-.37-.08a2.93,2.93,0,0,1,.08-1.16c3.53-6.61,7.41-13,12.91-18.16a13.7,13.7,0,0,1,2.12-1.31,13.72,13.72,0,0,0,2.48-1.95,3.85,3.85,0,0,0-3.43.3,20.57,20.57,0,0,0-7.45,7c-2.19,3.23-4.14,6.63-6.2,10a2.6,2.6,0,0,1-.76.85c-.17-1.57-1-3.1-.05-4.66,2.8-4.8,5.66-9.57,9.56-13.58a38,38,0,0,1,4.38-3.34c.79-.6,1.54-1.23,2.31-1.85l-.21-.49a13.91,13.91,0,0,0-2.34.36c-3.14,1-5.28,3.36-7.15,5.85-2.34,3.12-4.36,6.49-6.51,9.75-.22.33-.42.67-.62,1l-.43-.1a4.82,4.82,0,0,1,.24-1.59,68.1,68.1,0,0,1,11.7-16.47,16.94,16.94,0,0,1,2.67-1.72,14.38,14.38,0,0,0,2.45-2,3.73,3.73,0,0,0-3.43.32,17.74,17.74,0,0,0-6.67,6.05c-2.38,3.44-4.52,7-6.77,10.58-.12.19-.27.36-.65.85-.18-1.56-.79-2.77-.07-4,3-5,6-10,10.29-14.07a29.22,29.22,0,0,1,3.39-2.36c.78-.55,1.51-1.16,2.46-1.9a3.92,3.92,0,0,0-3.61.3c-3.13,1.51-5.35,4.06-7.34,6.76-1.82,2.47-3.35,5.15-5,7.74-.12.19-.27.36-.64.84-.21-1.8-.63-3.18.41-4.62A68.41,68.41,0,0,1,593.85,389a39.82,39.82,0,0,1,5.06-3.33c.65-.41,1.31-.81,2.26-1.39a4.46,4.46,0,0,0-3.94.22c-3.17,1.48-5.52,4-7.73,6.56-2,2.3-3.72,4.76-5.91,7.14a9.29,9.29,0,0,1,.48-2.62,18.82,18.82,0,0,1,2.51-4c2.75-3.16,5.56-6.27,8.51-9.23,1-1,2.53-1.5,3.8-2.24.63-.37,1.23-.77,1.84-1.16l-.09-.5a8.65,8.65,0,0,0-1.61,0,11.67,11.67,0,0,0-6.48,3.91c-2.54,2.78-4.88,5.74-7.3,8.62a2.64,2.64,0,0,1-.41.34c-1-1.19-1.16-2.65-.27-3.47,5.07-4.71,10.38-9.12,16.78-12a27.82,27.82,0,0,1,4.16-1.05,14.89,14.89,0,0,0,1.79-.77c-.82-.34-1.26-.7-1.66-.65a19.65,19.65,0,0,0-5.3.86c-5.89,2.47-10.7,6.55-15.28,10.91-.3.28-.62.56-.94.83,0,0-.17,0-.38,0a2,2,0,0,1,.43-2.36c4.84-4.4,9.9-8.53,15.81-11.44a20.2,20.2,0,0,1,3.33-.93c1-.29,2-.62,3-.94l0-.57a9.38,9.38,0,0,0-1.82-.47,13.14,13.14,0,0,0-8.23,2.72c-3.76,2.65-7.31,5.61-10.94,8.44-.29.23-.54.51-.83.74a3.1,3.1,0,0,1-.65.22c.22-1.56.12-3.13,1.31-4.15q5.52-4.72,11.21-9.25a5.37,5.37,0,0,1,2.55-.8c2.86-.37,5.73-.66,8.6-.94,4.28-.41,7.59-3.14,11.38-4.74,4.61-1.94,9.19-3.94,14.21-4.56a35.89,35.89,0,0,1,4.14.08,7.4,7.4,0,0,0,1.46-.29l.13-.42a10.85,10.85,0,0,0-1.68-.89c-3-.94-5.91-.16-8.81.55a31.53,31.53,0,0,1-3.48.85c3.46-1.81,7.28-2.4,11-3.28s7.61-.29,11.45,0a3.86,3.86,0,0,0-3.1-2.11,21.63,21.63,0,0,0-9.3.39c-2.21.47-4.41,1-6.62,1.55l-.23-.35a6.87,6.87,0,0,1,1.53-1.1,57.81,57.81,0,0,1,16.2-3.61,28.2,28.2,0,0,1,3.84.43c1,.1,2,.11,3.37.18a4.07,4.07,0,0,0-3.29-2.18,38.1,38.1,0,0,0-7.92.08,93.13,93.13,0,0,0-9.34,2.35l-1.17.29c.41-1.2.75-2.25,1.87-2.53,6.22-1.52,12.5-2.75,19-2.4a32.28,32.28,0,0,1,5.12,1.16,5.9,5.9,0,0,0,1.19,0l.24-.44a15,15,0,0,0-2.61-1.71c-3.68-1.49-7.53-1.19-11.32-.62-3.36.51-6.67,1.32-10,2a6.67,6.67,0,0,1-.67.06c.37-2.47,1.23-3.42,3.46-3.91,5.7-1.26,11.44-2.32,17.32-1.82a37.25,37.25,0,0,1,4.71,1.08,4.85,4.85,0,0,0,1.08,0l.25-.39A12.92,12.92,0,0,0,659,338.5a13.62,13.62,0,0,0-8.05-1.24c-4.34.52-8.65,1.36-13,2.07-.45.07-.88.22-1.47.37.09-1.27.14-2.3,1.5-2.62,5.9-1.4,11.83-2.77,17.94-2.68a37.28,37.28,0,0,1,5.58.91c.94.15,1.88.26,3.08.42a4.2,4.2,0,0,0-2.73-2.41,19.67,19.67,0,0,0-10.09-.63c-4.23.66-8.41,1.64-12.61,2.48l-1.17.26-.28-.37c.27-.29.5-.78.82-.86,7.71-1.86,15.39-3.95,23.44-3.49a24.64,24.64,0,0,1,3.23.73c1,.2,2.1.32,3.15.48l.27-.67a16.38,16.38,0,0,0-2.82-1.7,19.14,19.14,0,0,0-10.09-.58c-5.32.93-10.59,2.18-15.88,3.3l-1.54.37c.24-1.81.4-3.41.71-5,0-.29.67-.6,1.06-.67,9.86-1.61,19.71-3.28,29.74-3.15,4.93.07,9.91-.11,14.7,1.47.69.23,1.28.75,2,1,2.25.9,4.37,1.85,7,1,3.26-1,6-3.25,9.54-3.63A125.38,125.38,0,0,1,726,323c6.51.48,13,1.28,19.49,1.95.69.07,1.36.21,2.21.34a6.17,6.17,0,0,1-.32,1.12c-4.57,8.72-9.06,17.48-13.77,26.11a45.72,45.72,0,0,0-3.89,8.62c-1.72,5.59-.6,10.69,2.47,15.48,2.36,3.7,4.85,7.31,7.09,11.07,1.54,2.6,2.75,5.4,4,8.14a1.33,1.33,0,0,1-.39,1.22c-4.78,2.89-7.59,7.47-10.38,12.06-1.24,2-2.34,4.14-3.58,6.17-.23.36-.93.77-1.26.67a22.35,22.35,0,0,0-10.81-.23c-3.62.65-7.18,1.61-10.77,2.43a3.06,3.06,0,0,1-1.68.07l3.49-1.22a51.83,51.83,0,0,1,13.91-3,16,16,0,0,1,2.46.28c1,.11,2.07.19,3.1.28l.22-.64c-.8-.42-1.61-.81-2.39-1.26a13.58,13.58,0,0,0-1.54-1,11.53,11.53,0,0,0-3.5-1.16c-3.8-.19-7.38,1-10.83,2.45-3.77,1.6-7.46,3.42-11.18,5.14a2.67,2.67,0,0,0-.4.32l1.1,2.63c.07.17.24.32.24.48a9.69,9.69,0,0,0-.05,1.16,4.13,4.13,0,0,0,1.73.19c2.79-.56,5.56-1.22,8.34-1.78a63.79,63.79,0,0,1,14.45-1.31,19.25,19.25,0,0,1,3.36.79,14.88,14.88,0,0,0,3.21.45,4.76,4.76,0,0,0-3.91-2.61c-3.14-.25-6.3-.28-9.46-.26a43.75,43.75,0,0,0-4.81.56l-.07-.51a81.54,81.54,0,0,1,9-1,86.24,86.24,0,0,1,9.25.88l-.74-1.14c1.55-2.52,2.91-5.08,4.59-7.39,2.35-3.24,4.94-6.3,7.43-9.43a3.33,3.33,0,0,1,.51-.48c1.93-1.64,2.47-1.54,3.54.67q1.88,3.91,3.76,7.82a2.63,2.63,0,0,0,1,1.17v-6.39c1.76-.22,2.21.1,2.25,1.62.21,6.9.39,13.8.64,20.7,0,.69.48,1.36.57,2.07a3.57,3.57,0,0,1-.15,1.78c-.91,2.11-1,2.16.77,3.57,2.47,2,5,3.89,7.61,5.69a2.46,2.46,0,0,1,1.23,2.25c.23,9.56.54,19.12.72,28.68,0,1.86.39,3.37,1.92,4.52a7.79,7.79,0,0,1,.95,1.09c-.93-.05-2.06-.4-2.33-.07a8.48,8.48,0,0,0-1,2.71c-.11.34-.2.7-.37,1.32-.44-.43-.75-.71-1-1a14.06,14.06,0,0,0-8.18-4.49,2.36,2.36,0,0,0-1.37,0,2.07,2.07,0,0,0-1,1.18c-.07.27.45.88.84,1.06,2.73,1.25,4.12,3.51,5,6.24.27.89.63,1.75.89,2.65,1.55,5.3-.77,9.69-3.16,14.16a4.76,4.76,0,0,1-5.22,2.85,5.24,5.24,0,0,0-1.25.05c-1.15.18-1.6-.19-1.73-1.45-.29-3-3.14-4.39-6.2-3.31a85.31,85.31,0,0,1-9.07,2.76c-4.38,1-8.36-.4-11.87-2.92-2.06-1.48-2.64-4-3.27-6.34a9.05,9.05,0,0,0-.34-1.78c-.25-.48-.78-1.1-1.23-1.13-.83-.06-1.17.61-1,1.45a31.65,31.65,0,0,0,2.89,10c.13.25.27.49.38.75,0,.06,0,.16-.06.25-1.88-.36-1.88-.36-3.5,1.81-.48-.41-1-.78-1.41-1.22-.84-.86-1.83-.82-2.4.07-1.35,2-3.32,2.08-5.34,1.88a6.66,6.66,0,0,1-5.33-3.19c-2.47-4-2.69-8.12-.18-12.28.28-.46,0-1.34-.25-2a2.2,2.2,0,0,0-1.49.17c-4.29,2.87-5.88,9.34-3.48,14l.53,1.08a85.69,85.69,0,0,0-7.91,4.64c-2.63,1.91-4.94,4.25-7.38,6.41-.32.27-.58.66-1,.82-4.13,1.88-6.84,5.3-9.27,8.89s-4.47,7.31-6.69,11a3.85,3.85,0,0,1-.8,1.12c-4.17,3.08-6,7.68-7.75,12.24-1.12,2.91-1.9,5.94-2.85,8.92a3.28,3.28,0,0,1-.41.66l-.49,0a5,5,0,0,1-.27-1.9c1.84-6.51,3.82-13,7.21-18.91a32.83,32.83,0,0,1,3.53-4.26,13,13,0,0,0,1.61-2.25,3.66,3.66,0,0,0-3.43,1.35c-1.71,2.19-3.66,4.35-4.72,6.85-2,4.79-3.51,9.81-5.21,14.74-.21.61-.41,1.22-.6,1.81-1.82-.47-2.09-.93-1.63-2.57,1.72-6.16,3.68-12.25,7-17.77a36.16,36.16,0,0,1,3.54-4.24c.57-.69,1.07-1.43,1.81-2.43a5.49,5.49,0,0,0-4.06,1.78c-2.86,2.75-4.55,6.26-5.91,9.89s-2.41,7.45-3.6,11.18c-.2.61-.41,1.21-.61,1.8-2-.36-2.29-.83-1.8-2.51,1.72-6,3.5-11.91,6.47-17.41,1.13-2.1,2.26-4.16,4.31-5.58a8.31,8.31,0,0,0,1.52-1.91l-.28-.46a11.52,11.52,0,0,0-2.13.79c-2.75,1.68-4.19,4.44-5.61,7.17-2.75,5.3-4.19,11.06-5.81,16.76-.13.44-.33.87-.5,1.31l-.41,0a4.13,4.13,0,0,0-.35-1.06c-.35-.49-.83-.89-1.19-1.38-.24-.33-.6-.84-.5-1.12,2.42-6.64,5.19-13.11,9.6-18.71a37.25,37.25,0,0,1,4-3.77,6.31,6.31,0,0,0,.66-.86l-.17-.42a13.74,13.74,0,0,0-2.59.83,16.38,16.38,0,0,0-5.45,5.71c-3.4,5.14-5.52,10.88-7.64,16.61-.3.83-.62,1.45-1.68,1.18-.87-.22-1.17-.52-.71-1.45,3.13-6.26,6-12.64,9.35-18.79A73.38,73.38,0,0,1,655,508.44c1.07-1.1,2.61-1.72,3.83-2.69a29,29,0,0,0,3.78-3.58,5.62,5.62,0,0,0-4.39.52c-4.3,1.91-7.23,5.36-10,9-5.28,7.07-9.16,14.93-12.71,23-1.17,2.64-2.44,5.24-3.6,7.89-.45,1.06-1,1.16-1.93.61-2.95-1.69-3.08-2-1.7-5,3.82-8.36,7.64-16.73,12.71-24.42,2.85-4.3,6.09-8.36,9.28-12.43a13.55,13.55,0,0,1,5.12-3.75c1.59-.76,2.75-2.4,4.11-3.65l-.18-.42a9.73,9.73,0,0,0-1.52-.07c-4.09.46-7.16,2.77-9.93,5.56a68.67,68.67,0,0,0-12,17c-3.6,6.95-6.8,14.11-10.18,21.17-.21.45-.45.88-.68,1.33-1.94-1.34-2.06-1.88-1.29-3.73,1.74-4.22,3.34-8.5,5.13-12.7a95.92,95.92,0,0,1,11.77-20.77,14,14,0,0,1,4.42-3.76c1.29-.72,2.18-2.18,3.24-3.31l-.25-.47a19.09,19.09,0,0,0-2.75.53c-3.57,1.23-6,3.92-8.15,6.8-5.38,7.16-8.93,15.26-12,23.59-1.11,3-2.28,6-3.6,9.47-1-1.57-1.63-2.85-2.46-4-1-1.41-.75-2.7-.14-4.19,3.13-7.7,6.26-15.39,10.81-22.39a63.39,63.39,0,0,1,4.27-5.88,25,25,0,0,1,2.92-2.32,23.52,23.52,0,0,0,3.24-3.43,5.38,5.38,0,0,0-4.31.88c-3.3,1.87-5.54,4.82-7.58,7.91a91.88,91.88,0,0,0-9.54,19.73c-.54,1.51-1.18,3-1.91,4.82-1-1.69-1.79-2.86-1.07-4.66,3.31-8.4,7-16.59,12.26-24,1.5-2.12,3-4.19,5.55-5.4,1.18-.57,2-2,2.94-3ZM653.89,424l-.16-.36c-.28.09-.63.09-.82.26a5.27,5.27,0,0,1-4.74,1.06c-1.74-.3-3.47-.69-5.2-1.09-.31-.08-.84-.41-.82-.57.16-1.36-.89-1.34-1.7-1.57-3.62-1.05-7.25-2.05-10.86-3.12a25.63,25.63,0,0,1-2.86-1.22c.66-.6,1.08-.94,1.47-1.32,3.07-3,7.3-4.2,10.78-6.57a27.44,27.44,0,0,1,2.67-1.42,71.35,71.35,0,0,0,1.31,7.24,9.36,9.36,0,0,0,4.49,5.5,13.08,13.08,0,0,0,6.95,1.8,9.48,9.48,0,0,0,6.86-2.71c3.28-3.25,3.82-7.25,2.52-11.85.88.34,1.44.54,2,.78a59.13,59.13,0,0,1,13,8.15c1.94,1.54,1.93,1.6,4.08.42,1.53-.84,3-1.78,4.9-2.9a12.16,12.16,0,0,1-1.11-.68c-7.32-5.93-15.88-9-25-10.86-5.54-1.15-11.06-.56-16.54,0a32.15,32.15,0,0,0-9.05,2.69,53.46,53.46,0,0,0-7.06,4.15c-2.1,1.31-4.19,2.63-6.19,4.07-.79.58-2.35.89-1.58,2.54,0,.05-.06.19-.12.23-1.74,1.09-2.48,3.41-4.79,3.81a10.85,10.85,0,0,0-2,.91c2.85,1.44,5.32,2.63,7.74,3.93a10.09,10.09,0,0,1,2.79,2c2.38,2.68,4.48,5.61,7,8.19,3.35,3.49,7,6.75,10.46,10.11a9,9,0,0,0,6.94,2.35c1.48-.06,3,0,4.45.05a4.06,4.06,0,0,0,4.14-2.05c-3.84,1.44-3.53.61-7.54,0a21.64,21.64,0,0,1-3-.65,5.83,5.83,0,0,1-2.45-1.08c-4.94-5-9.8-10.09-14.68-15.16a4.79,4.79,0,0,1-.46-.86,6.4,6.4,0,0,1,1,.18c2.4.9,4.78,1.85,7.19,2.72,2.93,1.06,5.79,2.44,9.07,1.88a2,2,0,0,1,1.18.32,12.21,12.21,0,0,0,8.23,1.66c5.09-.82,10.13-2,15.16-3.1a3.34,3.34,0,0,0,2.51-2.61c-.28.06-.44.05-.52.12a9.11,9.11,0,0,1-9.93,1,2.17,2.17,0,0,0-1.73,0,22.74,22.74,0,0,1-17.4.8c-1.92-.67-3.71-1.71-5.59-2.51-1.58-.67-3.24-1.18-4.81-1.87a9.9,9.9,0,0,1-1.86-1.33,6.61,6.61,0,0,0-1.4-1c-1.62-.58-3.29-1.06-4.94-1.57a51.08,51.08,0,0,1,8.11,1c4.06.84,8.09,1.87,12.14,2.76a9.42,9.42,0,0,0,2.64.24A7.15,7.15,0,0,0,653.89,424Zm-35.68-9.52c2.29.39,3.63-.29,4.23-1.9a17.6,17.6,0,0,1,9.78-10.21,71.25,71.25,0,0,0,6.72-3.21A21.37,21.37,0,0,1,653,396.79c1.63.24,3.26.95,4.86-.16a1.11,1.11,0,0,1,.68,0c3.26.56,6.56,1,9.76,1.77,2.68.68,5.18,2.1,7.86,2.73a18.67,18.67,0,0,1,13.55,11.4c.43,1,1,1.25,1.94,1,.66-.19,1.59-.51,2-.21,1.27.89,2.13.19,3.18-.36,4.29-2.25,8.56-4.54,12.94-6.59a12.51,12.51,0,0,1,7.31-1.48,8.06,8.06,0,0,0,2.23-.34l.06-.53-2.75-1.07,2-.67,0-.53c-1.14-.23-2.34-.81-3.4-.61a32,32,0,0,0-8,2.12c-4.46,2.1-8.67,4.72-13,7.08-.31.18-.78.06-1.18.07.2-.31.32-.74.6-.91,4.86-3.06,9.69-6.19,15.16-8.05a40.8,40.8,0,0,1,5.54-1.09l2.41-.43v-.61a19,19,0,0,0-2.62-.59,14.62,14.62,0,0,0-8,2c-4.47,2.4-8.78,5.1-13.18,7.63-.36.21-.94,0-1.42.05.19-.41.27-1,.59-1.2,3.63-2.28,7.21-4.66,11-6.69,2.88-1.55,5.86-3.12,9.36-2.86a7,7,0,0,0,2.1-.65,4.46,4.46,0,0,0-4.09-.85,44.27,44.27,0,0,0-8.34,3.08c-3.87,2.12-7.46,4.76-11.21,7.11-.3.19-.9-.09-1.37-.15.09-.41.05-1,.3-1.2a48.87,48.87,0,0,1,4.82-3.58c2.76-1.7,5.39-3.76,8.86-3.89a3.55,3.55,0,0,0,1.14-.5l-.06-.4a4.13,4.13,0,0,0-1.54-.25c-1.83.5-3.81.8-5.38,1.76-3,1.83-5.77,4.08-8.67,6.11-.33.23-.91.11-1.38.16.16-.4.21-.94.51-1.18a41.6,41.6,0,0,1,4.34-3.29c2.8-1.73,5.5-3.74,9-3.88.35,0,.69-.3,1.38-.62a5.7,5.7,0,0,0-5,.11c-4,1.52-7.29,4.12-10.46,6.88-1.07.93-1.66.6-2.43-.5,4.61-3.72,9.13-7.44,15.3-8.43a2.32,2.32,0,0,0-1.56-.58,14.24,14.24,0,0,0-4.27,1.14,66.92,66.92,0,0,0-8.35,5.56c-1.62,1.31-2.73,1.74-4.68.59s-4.59-1.78-6.86-2.73a36.49,36.49,0,0,0-10.64-2.82c-1.21-.12-2.43-.12-3.61-.35a42.14,42.14,0,0,0-15.71-.34,35.21,35.21,0,0,0-22.77,14A53.72,53.72,0,0,0,618.21,414.44ZM690.51,388c-.54-.29-.75-.39-1-.52-4.06-2.58-8.18-5.15-12.86-6.35-5.08-1.3-10.26-2.3-15.44-3.09-7-1.06-14.06-.38-21.06.32-2.2.22-4.49,0-6.65,1.15s-4.53,1.63-6.76,2.55a33.08,33.08,0,0,0-14.24,10.73,17,17,0,0,0-3.45,7.85c-.05.39.29.84.46,1.26.36-.28.93-.48,1.06-.84a17,17,0,0,1,5.62-7.35,28.72,28.72,0,0,1,9.81-4.94c5-1.58,9.92-3.08,15.16-3.33a21.23,21.23,0,0,0,2.65-.06c3.88-.68,7.76-1.36,11.6-2.18a22.26,22.26,0,0,1,14.75,1.54c4.38,2.13,8.54,4.73,12.81,7.1.41.23,1.07.54,1.33.38C686.31,391,688.19,389.64,690.51,388Zm39,35.51a3.62,3.62,0,0,0-2.58-2.44,24,24,0,0,0-12-.53c-5.32.93-10.57,2.23-15.85,3.38a5.53,5.53,0,0,0-1,.48l.92,1.25-2.49.74c.59,1.45,1.6,1.09,2.51.89,6.62-1.43,13.28-2.63,20.09-2.45,2,.05,4.07,0,6,1.17.8.49,2,.38,3.08.55a2.67,2.67,0,0,0-.15-.6,3.7,3.7,0,0,0-.37-.42c-1.91-1.94-4.41-2.33-6.94-2.48a52,52,0,0,0-13.91,1.11c-1,.21-2,.34-3.06.51,6.27-1.69,12.59-3,19.11-2.57a26.62,26.62,0,0,1,3.76.89C727.53,423.24,728.51,423.37,729.49,423.54ZM723,409.77l.11-.64a13.52,13.52,0,0,0-2.87-.88c-4.92-.4-9.35,1.37-13.72,3.29-2.58,1.13-5.1,2.4-7.65,3.61l-.25-.49,10.53-5.32a30.12,30.12,0,0,1,11.39-2.76,4.32,4.32,0,0,0-2.1-1,14.39,14.39,0,0,0-8.64,1.79c-4.65,2.35-9.17,5-13.74,7.47a5.3,5.3,0,0,0-.79.73c2.52,1.57,2.48,1.48,4.73.52,4.25-1.81,8.49-3.62,12.82-5.18a14.27,14.27,0,0,1,7.95-1A7.71,7.71,0,0,0,723,409.77Zm-33.85,42.55c.33,1.26,1,1.4,1.83,1.26,2.29-.41,4.58-.83,6.87-1.28a77.14,77.14,0,0,1,19-1.71,12.46,12.46,0,0,1,5.93,1.34c1,.57,2.35.47,3.54.67l.18-.42c-.32-.36-.57-.86-1-1.07-1.51-.79-3-1.86-4.63-2.13a48.43,48.43,0,0,0-8.76-.56c-6.24.13-12.28,1.62-18.35,2.88C692.33,451.62,690.81,452,689.18,452.32Zm36.35,3.93.33-.62a15.71,15.71,0,0,0-1.44-1.39,12.22,12.22,0,0,0-6.54-2.14,57.63,57.63,0,0,0-16.52,1.11c-3.94.74-7.86,1.55-11.78,2.37-.36.08-.65.49-1,.74a6.25,6.25,0,0,0,1,.82,1.35,1.35,0,0,0,.82,0l7.81-1.49a72.41,72.41,0,0,1,19.59-1.36,24,24,0,0,1,3.76.92Zm.7-7.52.33-.67a26.34,26.34,0,0,0-3.25-2.18c-2.84-1.38-5.95-1.44-9-1.43-6.81,0-13.41,1.44-20,2.86l-5.19,1.08a1.5,1.5,0,0,0,2,1.25l8.11-1.51a74.77,74.77,0,0,1,16.95-1.47,14.42,14.42,0,0,1,6.76,1.45C723.84,448.63,725.11,448.54,726.23,448.73Zm.18,11.45.21-.38c-.28-.38-.49-.89-.87-1.1-1.33-.75-2.66-1.81-4.09-2a44,44,0,0,0-10.41-.59c-6.1.66-12.13,1.93-18.19,3-1.25.22-2.49.53-3.82.81a1.67,1.67,0,0,0,2.13,1.2l4.12-.79c6.92-1.37,13.87-2.47,21-2.2a14.75,14.75,0,0,1,6.64,1.37A12.25,12.25,0,0,0,726.41,460.18ZM726,440.64l.33-.72c-1.17-.75-2.26-1.85-3.54-2.17a32.36,32.36,0,0,0-7.56-1.12c-7.89-.06-15.51,1.92-23.17,3.51-.29.06-.53.39-.8.6.28.27.54.73.85.77a5.45,5.45,0,0,0,1.79-.14c7.55-1.52,15.1-3,22.86-2.62a13,13,0,0,1,6.08,1.27A10.38,10.38,0,0,0,726,440.64Zm.13,4.42.13-.41a6.71,6.71,0,0,0-4.76-2.92,43.44,43.44,0,0,0-9.71-.43c-6.46.79-12.86,2.1-19.28,3.21a9.76,9.76,0,0,0-1.32.4c.28,1.12,1,1.2,1.77,1.09s1.74-.31,2.61-.48c7.14-1.41,14.29-2.69,21.62-2.3a12.49,12.49,0,0,1,5.79,1.26A9.63,9.63,0,0,0,726.17,445.06Zm4.07,24.41.35-.41L728.22,467l1.39-.2a4.68,4.68,0,0,0-.53-.82,9.12,9.12,0,0,0-5.29-2.33c-6-.94-11.91-.09-17.85.51a2.92,2.92,0,0,0-.78.37v.43a6.53,6.53,0,0,0,1.6.3,43.7,43.7,0,0,0,5.85-.52c1.92-.38,3.77.2,5.69.05,2.45-.19,5,.51,7.45.9a5.6,5.6,0,0,1,1.53.76l-.1.34c-6.22-1.35-12.36-.58-18.53.54a2.31,2.31,0,0,0,1.56.53c1.58-.08,3.16-.32,4.74-.37,4.79-.15,9.62-.68,14.11,1.72A5.09,5.09,0,0,0,730.24,469.47ZM696.5,430c.48,1.23,1.36,1,2.24.85,6.91-1.34,13.83-2.78,20.93-2.4a36.53,36.53,0,0,1,5.4,1.13c1,.2,1.94.36,3.08.57-.85-1.78-2.21-2.66-4.47-3.14a34.08,34.08,0,0,0-12.25,0c-4.7.71-9.35,1.73-14,2.63A5.4,5.4,0,0,0,696.5,430Zm-1.72,6.59c.55,1.29,1.35,1.17,2.21,1,6.28-1.18,12.54-2.56,19-2.46,2.59.05,5.2-.19,7.63,1.22a8.52,8.52,0,0,0,2.83.49l.21-.57a11.46,11.46,0,0,0-2.54-1.76,20.64,20.64,0,0,0-5-1.16c-5.63-.46-11.16.43-16.65,1.62C700,435.52,697.46,436,694.78,436.59Zm-.08-3.53c.82,1.47,1.84,1.05,2.75.87,6.77-1.34,13.55-2.73,20.5-2.34a36.82,36.82,0,0,1,5.39,1.17c.95.2,1.93.33,2.89.49l.16-.39a7.39,7.39,0,0,0-.66-.8c-2-1.83-4.48-2.18-7-2.34-7-.44-13.72,1.14-20.47,2.53C697.14,432.49,696,432.76,694.7,433.06Zm1.87,30c.26,1.23,1,1.1,1.76,1,5.67-.82,11.32-1.78,17-2.38,3-.31,6-.36,8.9,1.08a12.56,12.56,0,0,0,3.11.57,5.53,5.53,0,0,0-4.18-2.9A36.44,36.44,0,0,0,715,460c-4.54.42-9,1.3-13.53,2.05C699.82,462.27,698.21,462.71,696.57,463.08ZM728.39,471l-.11.36c-7.09-.69-12.47-.51-13.8.63a11.88,11.88,0,0,0,1.61.15c1.11,0,2.23-.19,3.34-.22,3.35-.11,6.73-.44,9.87,1.2a3.64,3.64,0,0,0,1.08.13l-1.18-1.57,1.33-.12c-1.9-2.94-15.5-4.08-19-1.5a4.92,4.92,0,0,0,1.85.24c4.33-.38,8.65-.73,13,.07A17.1,17.1,0,0,1,728.39,471Zm-88.12-33.64c2,1,4,1.86,5.9,2.84s3.94,1.4,6,.4a7.14,7.14,0,0,0,1.05-.78l-.14-.46c-2.06,1.45-3.89.48-5.7-.32s-3.36-1.59-5-2.46C641.44,436,640.84,436.25,640.27,437.31Zm75.89,36.21c2.39,0,4.65-.14,6.88,0s4.4.65,6.55,1C728.43,472.54,719.29,471.76,716.16,473.52ZM718,475.2c3.83,0,7.71-.68,11.57,1.17C728.62,474.2,721,473.51,718,475.2Zm-67.32-32.95a15.64,15.64,0,0,1-3-.54c-1.51-.58-2.92-1.4-4.41-2-.32-.14-.8.08-1.21.14.19.3.32.74.6.89,1.44.74,2.89,1.49,4.39,2.08A3.49,3.49,0,0,0,650.67,442.25Zm36,.89c-1.3.7-2.65,1.49-4.06,2.15-1,.45-2,.66-3,1.09-.37.16-.6.63-.89,1C683.61,446.49,687.12,445.25,686.68,443.14ZM664.11,446l.16.41c3.31.79,7.93-.91,8.37-2.76-1.33.42-2.8.94-4.31,1.33-.94.25-1.94.25-2.9.44A6.39,6.39,0,0,0,664.11,446Z" transform="translate(-440.29 -290.11)"/><path class="cls-4" d="M806.17,574c-3.26-2.15-6.25-4.42-9.51-6.2-5.38-2.93-7.9-7.68-8.86-13.35a118.71,118.71,0,0,1-1.32-13.32c-.1-2,.59-4,.73-6a23,23,0,0,0-4.71-15.6,23.43,23.43,0,0,0-15-9.73,19.07,19.07,0,0,0-12.62,2,7.72,7.72,0,0,1-1.53.45l-.19-.44c.25-.22.48-.48.75-.68a12.61,12.61,0,0,0,4.61-6.33c.6-1.74,1.77-3.3,2.3-5.05a39.84,39.84,0,0,0,1.16-6.16c.2-1.49.25-1.6,1.7-1.14q10,3.25,20.1,6.49c1.85.6,1.85.57,1.81-1.38,0-.59,0-1.17,0-1.92.35.14.58.16.65.27.81,1.33,2.07,1.47,3.43,1.28a2.74,2.74,0,0,1,2.73,1.22c2.68,3.27,6.28,5.39,9.86,7.47,4.72,2.73,9.62,5.16,14.25,8,2.63,1.63,4.76,4.05,7.33,5.8,2.13,1.44,2.65,3.22,2.62,5.63-.05,3.68.26,7.36.37,11a2,2,0,0,0,1.35,2,1.82,1.82,0,0,1,1.17,2.46,25.89,25.89,0,0,0-.72,4,18.14,18.14,0,0,1-3.56,9.25,2.31,2.31,0,0,1-1.25,1c-5.42.93-9.4,4.13-12.35,8.47-2,2.93-3.27,6.34-4.87,9.54C806.51,573.31,806.4,573.51,806.17,574Z" transform="translate(-440.29 -290.11)"/><path class="cls-4" d="M692.61,322.74l.14-1.42.23.3a25.84,25.84,0,0,1,4.48-2.27,57.78,57.78,0,0,1,9.08-2c12-1.48,24-.23,36,1.22,2.24.27,4.5.37,7,.58a10.66,10.66,0,0,1,.39,1.76c.09,1.11-.6,1.71-1.74,1.58-5.56-.67-11.11-1.37-16.66-2-10-1.18-20.09-1.71-30.08.24-3.39.66-6.68,1.75-9.29,4.26a1.22,1.22,0,0,1-1.18.11c-4.17-3.3-9.12-4.07-14.19-4.42-10.28-.73-20.38.66-30.44,2.53-1.93.36-3.86.68-5.79,1-.6.09-1.4.45-1.45-.66,0-.77-.23-1.51,1-1.71,11.14-1.84,22.3-3.52,33.64-3q3.78.16,7.53.65a16.07,16.07,0,0,1,5.59,2C688.54,322.25,690.62,322.3,692.61,322.74Z" transform="translate(-440.29 -290.11)"/><path class="cls-4" d="M793.63,398.07c-.64,0-1.18,0-1.71,0-1.16,0-2.33-.16-3.49-.12a17.75,17.75,0,0,1-8-1.75,18.52,18.52,0,0,0-9-1.3c-1.12.07-2.24.1-3.35.19-.78.07-1.12-.26-1.13-1,0-2.28-.12-4.56-.09-6.84,0-.36.51-1,.82-1,4.17-.31,8.34-.76,12.51-.7,3.72.05,6.79,1.82,9.38,4.6a21.53,21.53,0,0,1,4,7.07A4.24,4.24,0,0,1,793.63,398.07Z" transform="translate(-440.29 -290.11)"/><path class="cls-4" d="M740.09,311c-1.68-.19-3.37-.34-5-.58a112.19,112.19,0,0,0-27.88-.81,30.7,30.7,0,0,0-10.39,2.62c-1,.5-1.08.43-1.73-.78,2.14-2.29,5-3,7.92-3.38a115.35,115.35,0,0,1,23.86-.72c.42,0,.84.07,1.26.07A23.2,23.2,0,0,1,740.09,311Z" transform="translate(-440.29 -290.11)"/><path class="cls-4" d="M790.38,409.13c-.38-1-.75-1.94-1.27-3.26a8.43,8.43,0,0,1,2.7.23c.37.16.52,1.19.5,1.82a8,8,0,0,1-7.45,7.54,9.61,9.61,0,0,1-7.28-1.91c-.06-1.1,2.41-.89,1-2.59a6.42,6.42,0,0,0,5.58.58c2-.82,2.78-2.49,2.92-4.58,1.69,0,1.93,1.6,2.84,2.37Z" transform="translate(-440.29 -290.11)"/><path class="cls-4" d="M694.7,313.06c-1.73,2.16-1.78,2.15-3.82,1.15a31.71,31.71,0,0,0-13-2.81,118.58,118.58,0,0,0-26.71,2.26c-2.19.41-4.4.73-6.62,1,10-2.31,20-4.4,30.24-4.43,3.4,0,6.81,0,10.19.33,1.59.15,3.09,1.12,4.67,1.62a22.33,22.33,0,0,0,2.84.58C693.14,312.86,693.83,312.94,694.7,313.06Z" transform="translate(-440.29 -290.11)"/><path class="cls-4" d="M700.25,314.23c2.26-.37,4.52-.84,6.8-1.11,12-1.43,24-.33,36,1.11,1.39.16,2.78.33,4.17.52,1,.13,1.09.25,1.14,1.68-2-.25-3.87-.51-5.79-.72-9.39-1.06-18.75-2.71-28.25-2.32-4.23.18-8.44.74-12.65,1.14-.44,0-.87.13-1.31.2Z" transform="translate(-440.29 -290.11)"/><path class="cls-4" d="M499.37,342.1a11.78,11.78,0,0,1,1-.61c6.17-2.76,12.36-5.48,18.51-8.27,2.08-1,3.65-.16,5.46,1.33L499.5,342.4Z" transform="translate(-440.29 -290.11)"/><path class="cls-4" d="M639,318.62a8.74,8.74,0,0,1,1.38-.42c8.6-1.12,17.18-2.47,25.81-3.25a63.48,63.48,0,0,1,18,.6,33.51,33.51,0,0,1,5,1.9c.94.35,1.9.64,2.93,1-.52,1.05-1,1.59-2.2.72-3.71-2.63-8.06-3.32-12.46-3.66A99.88,99.88,0,0,0,652.37,317c-4.09.73-8.19,1.38-12.28,2.06a7.08,7.08,0,0,1-1,0Z" transform="translate(-440.29 -290.11)"/><path class="cls-4" d="M769.32,564.93c2.45,4.71,2.51,10.34,6.4,14.33l-.59.31a62.38,62.38,0,0,1-3.69-6.22,65.8,65.8,0,0,1-2.33-7.14,5.8,5.8,0,0,0-.66.94c-.51,1.49-1,3-1.48,4.48a.91.91,0,0,1-.14.38c-1.29,1.39-1.29,1.39-1.67,2.79-.4-1.79-.73-3.23-1-4.68a.66.66,0,0,1,.2-.5Z" transform="translate(-440.29 -290.11)"/><path class="cls-4" d="M539.94,443.89c-2.14-2.2-5-3.53-5.78-6.81a2.26,2.26,0,0,0-1.3-1.27,2.91,2.91,0,0,1-2.08-3.08c1.78,1.52,3.51,3,5.3,4.5,1.19,1,2.46,1.84,3.72,2.71,1.67,1.15,1.69,1.13.8,2.93C540.46,443.15,540.26,443.4,539.94,443.89Z" transform="translate(-440.29 -290.11)"/><path class="cls-4" d="M657,308.93q-9.08,2-18.13,4c-.93.21-1.23-.38-1.23-1.05a1.26,1.26,0,0,1,.76-1c6.21-.82,12.43-1.58,18.64-2.35Z" transform="translate(-440.29 -290.11)"/><path class="cls-4" d="M545.29,469.05a29,29,0,0,1-8.84-7.31,4.65,4.65,0,0,1-.54-2.65C539.67,461.87,542.11,465.8,545.29,469.05Z" transform="translate(-440.29 -290.11)"/><path class="cls-4" d="M538.71,448.56a11,11,0,0,1-4.32-7.37l.33-.27a35,35,0,0,1,4.57,4.26c.52.67,0,2.17-.11,3.3Z" transform="translate(-440.29 -290.11)"/><path class="cls-4" d="M535.07,446.84c2.32,2.21,4.82,4.19,4.18,7.79C536.54,453.09,534.3,449.4,535.07,446.84Z" transform="translate(-440.29 -290.11)"/><path class="cls-4" d="M539.25,459.84a6.57,6.57,0,0,1-3.89-6.7,5.75,5.75,0,0,1,.74.53c.76.74,1.46,1.56,2.26,2.26C540,457.32,540.05,457.66,539.25,459.84Z" transform="translate(-440.29 -290.11)"/><path class="cls-4" d="M742,579.39c-2,5.7-1.83,11.68-2.24,17.59C738.26,594.93,740.07,581.49,742,579.39Z" transform="translate(-440.29 -290.11)"/><path class="cls-4" d="M764.56,582.6c-.47-.08-.66-.06-.72-.13-2-2.9-4.15-5.75-4.73-9.37a1.49,1.49,0,0,1,0-.69,4.63,4.63,0,0,1,.49-.86c.2.27.57.53.58.8.06,3.14,1.75,5.64,3.17,8.24C763.65,581.21,764.05,581.79,764.56,582.6Z" transform="translate(-440.29 -290.11)"/><path class="cls-4" d="M763,570.75c-.62,4.3,2,7.49,3.57,11.11a2.85,2.85,0,0,1-.6-.54,61.81,61.81,0,0,1-3.24-5.7,14.41,14.41,0,0,1-.87-4.06c0-.29.49-.67.75-1Z" transform="translate(-440.29 -290.11)"/><path class="cls-4" d="M758.42,583.82c-2.67-1.59-7.26-10.26-6.25-12.36C753.26,576.33,755.87,580.05,758.42,583.82Z" transform="translate(-440.29 -290.11)"/><path class="cls-4" d="M587.17,373.12a14.32,14.32,0,0,1,7-6.52l.23.27Z" transform="translate(-440.29 -290.11)"/><path class="cls-4" d="M768.94,572.85a3.43,3.43,0,0,1,.46.5c1.19,2,2.38,4,3.52,6a2.94,2.94,0,0,1,.1,1.09c-.28-.09-.73-.1-.83-.29-1.16-2.3-2.28-4.63-3.39-6.95C768.77,573.14,768.86,573,768.94,572.85Z" transform="translate(-440.29 -290.11)"/><path class="cls-4" d="M750.66,582.79c.56.79,1.15,1.57,1.65,2.4.09.14-.16.68-.32.72s-.87,0-1-.19a27.48,27.48,0,0,1-.92-2.69Z" transform="translate(-440.29 -290.11)"/><path class="cls-4" d="M767.51,575.45l2.85,5.47C769.07,580.48,767.58,577.6,767.51,575.45Z" transform="translate(-440.29 -290.11)"/><path class="cls-4" d="M747.12,582.86c-1,1-.22,2.71-1.37,3.63l-.59-.23,1.41-3.64Z" transform="translate(-440.29 -290.11)"/><path class="cls-4" d="M748.67,576.22l-1.12-4,.58-.16,1,4.08Z" transform="translate(-440.29 -290.11)"/><path class="cls-4" d="M719.59,412.33l-4.91.84-.06-.33,4.91-.94Z" transform="translate(-440.29 -290.11)"/><path class="cls-4" d="M757.1,572.06c.3,1.41.61,2.82.91,4.23C757.25,575,756.31,573.71,757.1,572.06Z" transform="translate(-440.29 -290.11)"/><path class="cls-4" d="M746.79,589.91c.16.89.31,1.77.46,2.66l-.7.11c-.14-.88-.29-1.76-.43-2.64Z" transform="translate(-440.29 -290.11)"/><path class="cls-4" d="M748.67,584.68A5.52,5.52,0,0,1,749,586c0,.28-.27.56-.42.84-.19-.27-.52-.52-.54-.8a4.67,4.67,0,0,1,.22-1.31Z" transform="translate(-440.29 -290.11)"/><path class="cls-4" d="M668.08,306.57l2.26-.11,0,.48-2.23.27Z" transform="translate(-440.29 -290.11)"/><path d="M704.9,593.5c.86-2.74,1.87-5.45,2.54-8.23.85-3.58,1.43-7.22,2.14-10.84a8.54,8.54,0,0,1,.55-2c.13-.3.62-.44.94-.66.12.36.39.73.34,1.06-1.17,7.5-2,15.09-5.13,22.13-.09.2-.08.43.14.84a4.81,4.81,0,0,0,1-1.11,51.56,51.56,0,0,0,3-7.21c1.33-5,2.32-10.17,3.44-15.26a2.74,2.74,0,0,1,.05-.28c.18-.8.15-1.79,1.31-1.76a4.67,4.67,0,0,1,.21,1.94c-.71,4.32-1.26,8.69-2.33,12.93a104,104,0,0,1-3.65,10.09c-.08.2-.13.41-.2.62l.32.22a13.68,13.68,0,0,0,1.38-1.85,55,55,0,0,0,4.93-15.54c.41-2.15.76-4.32,1.15-6.47a3.41,3.41,0,0,1,.36-1.34,4,4,0,0,1,1.14-.79,3.31,3.31,0,0,1,.24,1.11c-1.12,6.52-1.7,13.15-4.06,19.41-1.09,2.89-2.28,5.74-4.9,7.66a17.87,17.87,0,0,1-2,1.06l.38-2.08c-.35.24-.6.41-.84.59a2.7,2.7,0,0,1-.34.25c-2,1-4.39,1.23-6.18,2.89-.27-2.64,2.53-3.38,2.87-5.06-.45-.84-1-1.41-1-1.88.83-5.81,1.62-11.64,2.71-17.4a19.11,19.11,0,0,1,3.79-8.63,5.46,5.46,0,0,1,3.52-2.28,8.25,8.25,0,0,1-1.14,2.33c-2.48,2.39-3.56,5.52-4.26,8.67-1.19,5.32-1.95,10.73-2.89,16.1a5,5,0,0,0,0,.67Z" transform="translate(-440.29 -290.11)"/><path d="M727,594.59q0,4.67,0,9.34a3.08,3.08,0,0,1-.18,1.36c-.18.34-.65.54-1,.8-.16-.35-.46-.69-.46-1,0-2.85,0-5.69,0-8.54v-6.25c-.21.59-.39,1.13-.6,1.66-1.14,2.85-2.14,5.77-3.49,8.51-.61,1.22-1.92,2.11-3,3.08a4.64,4.64,0,0,1-1.32.58l-.38-.34a9.18,9.18,0,0,1,1.44-2.32c2-1.8,2.89-4.21,3.79-6.61a83.33,83.33,0,0,0,3.89-16.44,13,13,0,0,1,.57-2.58c.13-.37.72-.56,1.11-.83a3.67,3.67,0,0,1,.29,1.22,33.63,33.63,0,0,0-.48,4.83c.63-1.17,1.19-2.39,1.93-3.49,1.21-1.8,2-2,3.13-1.24l1.37-.58.33.2a7.82,7.82,0,0,1-.95,2.45,11.65,11.65,0,0,0-2.46,6.45c-.6,5.23-1,10.48-1.37,15.72-.11,1.4,0,2.81-.11,4.19,0,.46-.62.87-.95,1.3a4,4,0,0,1-.5-1.3c0-3.38,0-6.76,0-10.14Z" transform="translate(-440.29 -290.11)"/><path d="M685.56,537.29c.29-1,.56-2,.89-3,.79-2.38,1.64-4.75,2.41-7.14a1.5,1.5,0,0,1,1.59-1.24c1.16,0,2.33-.1,3.49-.18.84-.05,1.13.31.86,1.1q-1.11,3.39-2.25,6.76a1.06,1.06,0,0,1-.35.58c-2.09,1.18-4.19,2.33-6.29,3.48Z" transform="translate(-440.29 -290.11)"/><path d="M711.68,601.05A7.92,7.92,0,0,1,712.9,599c2.34-2.1,3.25-4.94,4.25-7.74,2-5.47,2.85-11.18,3.81-16.87.15-.9.23-1.9,1.7-2a5.19,5.19,0,0,1,.06,1.22c-1.12,6.22-1.69,12.55-3.73,18.59a20.68,20.68,0,0,1-3.71,7.13,4.94,4.94,0,0,1-3.22,2.08Z" transform="translate(-440.29 -290.11)"/><path d="M713.66,602.68a7.41,7.41,0,0,1,1.26-2.17c2.37-2,3.18-4.78,4.18-7.46,2.07-5.51,3.06-11.3,4-17.08,0-.19,0-.42.08-.55.4-.54.84-1,1.26-1.57a6.06,6.06,0,0,1,.24,1.76c-.58,3.87-1.12,7.75-1.9,11.57a38.17,38.17,0,0,1-4.41,12.3,8.31,8.31,0,0,1-4.24,3.54Z" transform="translate(-440.29 -290.11)"/><path d="M709.08,566a8.74,8.74,0,0,1-1.16,2.11c-2.51,2.5-3.53,5.73-4.24,9-1.14,5.27-1.93,10.62-2.89,15.94-.15.82,0,1.91-1.24,1.94a4.65,4.65,0,0,1-.3-2c.86-5.67,1.67-11.34,2.73-17a17.47,17.47,0,0,1,3.75-8.18,20.21,20.21,0,0,1,2.79-2.32Z" transform="translate(-440.29 -290.11)"/><path d="M706.19,562.41c-.62,1-1.08,1.81-1.57,2.57a27.27,27.27,0,0,0-2.15,3.36c-2.5,5.79-3.5,11.95-4.28,18.16a30.9,30.9,0,0,1-.56,3.72c-.13.51-.75.9-1.15,1.35a4.21,4.21,0,0,1-.33-1.47c.81-6,1-12.1,2.93-17.88a55.54,55.54,0,0,1,3.29-7.5A4.12,4.12,0,0,1,706.19,562.41Z" transform="translate(-440.29 -290.11)"/><path d="M737.06,576.24a6.21,6.21,0,0,1-.64,1.77c-2.46,3.33-2.7,7.3-3.09,11.15-.37,3.6-.31,7.25-.43,10.88a3.7,3.7,0,0,1-.06,1.11,8.86,8.86,0,0,1-.78,1.31c-.22-.45-.62-.9-.61-1.35.12-5,.2-10,.51-15.05a16.3,16.3,0,0,1,2.4-7.95,16.77,16.77,0,0,1,2.17-2.3Z" transform="translate(-440.29 -290.11)"/><path d="M679.33,552.93a5,5,0,0,1-.1-1.06c.73-5.63,1.26-11.31,3-16.76A13,13,0,0,1,685.7,529a11.15,11.15,0,0,1,1.64-1l.41.37a7.39,7.39,0,0,1-1,1.81,11.12,11.12,0,0,0-3,5.75c-1.13,5.08-2.07,10.21-3.06,15.32C680.4,552.53,680.44,552.54,679.33,552.93Z" transform="translate(-440.29 -290.11)"/><path d="M698.67,523.84c-2.43,3.22-2.28,7.22-3.22,10.89h-.37l-.39-.94c-.19.7-.4,1.5-.71,2.62C692.47,533,695.53,525,698.67,523.84Z" transform="translate(-440.29 -290.11)"/><path d="M696.84,535c-.4-5,2.77-13.84,5.26-14.33C699,524.94,699.83,530.51,696.84,535Z" transform="translate(-440.29 -290.11)"/><path d="M653.89,424a7.15,7.15,0,0,1-5.24,2.75,9.42,9.42,0,0,1-2.64-.24c-4-.89-8.08-1.92-12.14-2.76a51.08,51.08,0,0,0-8.11-1c1.65.51,3.32,1,4.94,1.57a6.61,6.61,0,0,1,1.4,1,9.9,9.9,0,0,0,1.86,1.33c1.57.69,3.23,1.2,4.81,1.87,1.88.8,3.67,1.84,5.59,2.51a22.74,22.74,0,0,0,17.4-.8,2.17,2.17,0,0,1,1.73,0,9.11,9.11,0,0,0,9.93-1c.08-.07.24-.06.52-.12a3.34,3.34,0,0,1-2.51,2.61c-5,1.13-10.07,2.28-15.16,3.1a12.21,12.21,0,0,1-8.23-1.66,2,2,0,0,0-1.18-.32c-3.28.56-6.14-.82-9.07-1.88-2.41-.87-4.79-1.82-7.19-2.72a6.4,6.4,0,0,0-1-.18,4.79,4.79,0,0,0,.46.86c4.88,5.07,9.74,10.16,14.68,15.16a5.83,5.83,0,0,0,2.45,1.08,21.64,21.64,0,0,0,3,.65c4,.64,3.7,1.47,7.54,0a4.06,4.06,0,0,1-4.14,2.05c-1.48-.07-3-.11-4.45-.05a9,9,0,0,1-6.94-2.35c-3.5-3.36-7.11-6.62-10.46-10.11-2.48-2.58-4.58-5.51-7-8.19a10.09,10.09,0,0,0-2.79-2c-2.42-1.3-4.89-2.49-7.74-3.93a10.85,10.85,0,0,1,2-.91c2.31-.4,3-2.72,4.79-3.81.06,0,.15-.18.12-.23-.77-1.65.79-2,1.58-2.54,2-1.44,4.09-2.76,6.19-4.07a53.46,53.46,0,0,1,7.06-4.15,32.15,32.15,0,0,1,9.05-2.69c5.48-.55,11-1.14,16.54,0,9.09,1.9,17.65,4.93,25,10.86a12.16,12.16,0,0,0,1.11.68c-1.89,1.12-3.37,2.06-4.9,2.9-2.15,1.18-2.14,1.12-4.08-.42a59.13,59.13,0,0,0-13-8.15c-.54-.24-1.1-.44-2-.78,1.3,4.6.76,8.6-2.52,11.85a9.48,9.48,0,0,1-6.86,2.71,13.08,13.08,0,0,1-6.95-1.8,9.36,9.36,0,0,1-4.49-5.5,71.35,71.35,0,0,1-1.31-7.24,27.44,27.44,0,0,0-2.67,1.42c-3.48,2.37-7.71,3.53-10.78,6.57-.39.38-.81.72-1.47,1.32a25.63,25.63,0,0,0,2.86,1.22c3.61,1.07,7.24,2.07,10.86,3.12.81.23,1.86.21,1.7,1.57,0,.16.51.49.82.57,1.73.4,3.46.79,5.2,1.09a5.27,5.27,0,0,0,4.74-1.06c.19-.17.54-.17.82-.26Zm2.38-13c-1,1.95-2,3.46-3.81,3.56a26.72,26.72,0,0,1-4.68-.54l.36.89-1.65,1.31a9.42,9.42,0,0,0,6.78,2.17c4.65-.2,8.15-3.59,8.2-7.9,0-1.64-.74-2.38-2.37-2.21a4.19,4.19,0,0,0-1,.39l.06-.33-2.55-.91c.17,1.45.49,2.27,1.55,2.85,1.45.79,2.26,2.64,1.9,3.69Z" transform="translate(-440.29 -290.11)"/><path d="M618.21,414.44a53.72,53.72,0,0,1,3.59-6.5,35.21,35.21,0,0,1,22.77-14,42.14,42.14,0,0,1,15.71.34c1.18.23,2.4.23,3.61.35a36.49,36.49,0,0,1,10.64,2.82c2.27,1,4.76,1.5,6.86,2.73s3.06.72,4.68-.59a66.92,66.92,0,0,1,8.35-5.56,14.24,14.24,0,0,1,4.27-1.14,2.32,2.32,0,0,1,1.56.58c-6.17,1-10.69,4.71-15.3,8.43.77,1.1,1.36,1.43,2.43.5,3.17-2.76,6.47-5.36,10.46-6.88a5.7,5.7,0,0,1,5-.11c-.69.32-1,.61-1.38.62-3.5.14-6.2,2.15-9,3.88a41.6,41.6,0,0,0-4.34,3.29c-.3.24-.35.78-.51,1.18.47-.05,1.05.07,1.38-.16,2.9-2,5.66-4.28,8.67-6.11,1.57-1,3.55-1.26,5.38-1.76a4.13,4.13,0,0,1,1.54.25l.06.4a3.55,3.55,0,0,1-1.14.5c-3.47.13-6.1,2.19-8.86,3.89a48.87,48.87,0,0,0-4.82,3.58c-.25.21-.21.79-.3,1.2.47.06,1.07.34,1.37.15,3.75-2.35,7.34-5,11.21-7.11a44.27,44.27,0,0,1,8.34-3.08,4.46,4.46,0,0,1,4.09.85,7,7,0,0,1-2.1.65c-3.5-.26-6.48,1.31-9.36,2.86-3.77,2-7.35,4.41-11,6.69-.32.2-.4.79-.59,1.2.48,0,1.06.16,1.42-.05,4.4-2.53,8.71-5.23,13.18-7.63a14.62,14.62,0,0,1,8-2,19,19,0,0,1,2.62.59v.61l-2.41.43a40.8,40.8,0,0,0-5.54,1.09c-5.47,1.86-10.3,5-15.16,8.05-.28.17-.4.6-.6.91.4,0,.87.11,1.18-.07,4.33-2.36,8.54-5,13-7.08a32,32,0,0,1,8-2.12c1.06-.2,2.26.38,3.4.61l0,.53-2,.67,2.75,1.07-.06.53a8.06,8.06,0,0,1-2.23.34,12.51,12.51,0,0,0-7.31,1.48c-4.38,2.05-8.65,4.34-12.94,6.59-1,.55-1.91,1.25-3.18.36-.42-.3-1.35,0-2,.21-1,.29-1.51,0-1.94-1a18.67,18.67,0,0,0-13.55-11.4c-2.68-.63-5.18-2.05-7.86-2.73-3.2-.8-6.5-1.21-9.76-1.77a1.11,1.11,0,0,0-.68,0c-1.6,1.11-3.23.4-4.86.16a21.37,21.37,0,0,0-14.09,2.33,71.25,71.25,0,0,1-6.72,3.21,17.6,17.6,0,0,0-9.78,10.21C621.84,414.15,620.5,414.83,618.21,414.44Zm97.58-11.67c-.21-.06-.43-.2-.61-.16a41.82,41.82,0,0,0-5.15,1.17A70.41,70.41,0,0,0,695.72,411a11.22,11.22,0,0,0-1.47,1.3,9,9,0,0,0,2-.62C702.45,408.05,708.44,404,715.79,402.77Z" transform="translate(-440.29 -290.11)"/><path d="M690.51,388c-2.32,1.61-4.2,3-6.16,4.22-.26.16-.92-.15-1.33-.38-4.27-2.37-8.43-5-12.81-7.1a22.26,22.26,0,0,0-14.75-1.54c-3.84.82-7.72,1.5-11.6,2.18a21.23,21.23,0,0,1-2.65.06c-5.24.25-10.21,1.75-15.16,3.33a28.72,28.72,0,0,0-9.81,4.94,17,17,0,0,0-5.62,7.35c-.13.36-.7.56-1.06.84-.17-.42-.51-.87-.46-1.26a17,17,0,0,1,3.45-7.85,33.08,33.08,0,0,1,14.24-10.73c2.23-.92,4.65-1.44,6.76-2.55s4.45-.93,6.65-1.15c7-.7,14-1.38,21.06-.32,5.18.79,10.36,1.79,15.44,3.09,4.68,1.2,8.8,3.77,12.86,6.35C689.76,387.64,690,387.74,690.51,388Z" transform="translate(-440.29 -290.11)"/><path d="M729.49,423.54c-1-.17-2-.3-2.93-.52a26.62,26.62,0,0,0-3.76-.89c-6.52-.42-12.84.88-19.11,2.57,1-.17,2-.3,3.06-.51a52,52,0,0,1,13.91-1.11c2.53.15,5,.54,6.94,2.48a3.7,3.7,0,0,1,.37.42,2.67,2.67,0,0,1,.15.6c-1.12-.17-2.28-.06-3.08-.55-1.89-1.15-3.94-1.12-6-1.17-6.81-.18-13.47,1-20.09,2.45-.91.2-1.92.56-2.51-.89l2.49-.74-.92-1.25a5.53,5.53,0,0,1,1-.48c5.28-1.15,10.53-2.45,15.85-3.38a24,24,0,0,1,12,.53A3.62,3.62,0,0,1,729.49,423.54Z" transform="translate(-440.29 -290.11)"/><path d="M723,409.77a7.71,7.71,0,0,1-2.23.14,14.27,14.27,0,0,0-7.95,1c-4.33,1.56-8.57,3.37-12.82,5.18-2.25,1-2.21,1.05-4.73-.52a5.3,5.3,0,0,1,.79-.73c4.57-2.51,9.09-5.12,13.74-7.47a14.39,14.39,0,0,1,8.64-1.79,4.32,4.32,0,0,1,2.1,1,30.12,30.12,0,0,0-11.39,2.76l-10.53,5.32.25.49c2.55-1.21,5.07-2.48,7.65-3.61,4.37-1.92,8.8-3.69,13.72-3.29a13.52,13.52,0,0,1,2.87.88Z" transform="translate(-440.29 -290.11)"/><path d="M689.18,452.32c1.63-.36,3.15-.7,4.68-1,6.07-1.26,12.11-2.75,18.35-2.88A48.43,48.43,0,0,1,721,449c1.62.27,3.12,1.34,4.63,2.13.4.21.65.71,1,1.07l-.18.42c-1.19-.2-2.56-.1-3.54-.67a12.46,12.46,0,0,0-5.93-1.34,77.14,77.14,0,0,0-19,1.71c-2.29.45-4.58.87-6.87,1.28C690.21,453.72,689.51,453.58,689.18,452.32Z" transform="translate(-440.29 -290.11)"/><path d="M725.53,456.25l-3.91-1.05a24,24,0,0,0-3.76-.92,72.41,72.41,0,0,0-19.59,1.36l-7.81,1.49a1.35,1.35,0,0,1-.82,0,6.25,6.25,0,0,1-1-.82c.33-.25.62-.66,1-.74,3.92-.82,7.84-1.63,11.78-2.37a57.63,57.63,0,0,1,16.52-1.11,12.22,12.22,0,0,1,6.54,2.14,15.71,15.71,0,0,1,1.44,1.39Z" transform="translate(-440.29 -290.11)"/><path d="M726.23,448.73c-1.12-.19-2.39-.1-3.32-.62a14.42,14.42,0,0,0-6.76-1.45,74.77,74.77,0,0,0-16.95,1.47l-8.11,1.51a1.5,1.5,0,0,1-2-1.25l5.19-1.08c6.61-1.42,13.21-2.84,20-2.86,3.08,0,6.19.05,9,1.43a26.34,26.34,0,0,1,3.25,2.18Z" transform="translate(-440.29 -290.11)"/><path d="M726.41,460.18a12.25,12.25,0,0,1-3.32-.7,14.75,14.75,0,0,0-6.64-1.37c-7.09-.27-14,.83-21,2.2l-4.12.79a1.67,1.67,0,0,1-2.13-1.2c1.33-.28,2.57-.59,3.82-.81,6.06-1,12.09-2.31,18.19-3a44,44,0,0,1,10.41.59c1.43.18,2.76,1.24,4.09,2,.38.21.59.72.87,1.1Z" transform="translate(-440.29 -290.11)"/><path d="M726,440.64a10.38,10.38,0,0,1-3.16-.62,13,13,0,0,0-6.08-1.27c-7.76-.34-15.31,1.1-22.86,2.62a5.45,5.45,0,0,1-1.79.14c-.31,0-.57-.5-.85-.77.27-.21.51-.54.8-.6,7.66-1.59,15.28-3.57,23.17-3.51a32.36,32.36,0,0,1,7.56,1.12c1.28.32,2.37,1.42,3.54,2.17Z" transform="translate(-440.29 -290.11)"/><path d="M726.17,445.06a9.63,9.63,0,0,1-3.15-.58,12.49,12.49,0,0,0-5.79-1.26c-7.33-.39-14.48.89-21.62,2.3-.87.17-1.74.35-2.61.48s-1.49,0-1.77-1.09a9.76,9.76,0,0,1,1.32-.4c6.42-1.11,12.82-2.42,19.28-3.21a43.44,43.44,0,0,1,9.71.43,6.71,6.71,0,0,1,4.76,2.92Z" transform="translate(-440.29 -290.11)"/><path d="M730.24,469.47a5.09,5.09,0,0,1-1.18-.29c-4.49-2.4-9.32-1.87-14.11-1.72-1.58.05-3.16.29-4.74.37a2.31,2.31,0,0,1-1.56-.53c6.17-1.12,12.31-1.89,18.53-.54l.1-.34a5.6,5.6,0,0,0-1.53-.76c-2.47-.39-5-1.09-7.45-.9-1.92.15-3.77-.43-5.69-.05a43.7,43.7,0,0,1-5.85.52,6.53,6.53,0,0,1-1.6-.3v-.43a2.92,2.92,0,0,1,.78-.37c5.94-.6,11.87-1.45,17.85-.51a9.12,9.12,0,0,1,5.29,2.33,4.68,4.68,0,0,1,.53.82l-1.39.2,2.37,2.09Z" transform="translate(-440.29 -290.11)"/><path d="M696.5,430a5.4,5.4,0,0,1,.91-.38c4.67-.9,9.32-1.92,14-2.63a34.08,34.08,0,0,1,12.25,0c2.26.48,3.62,1.36,4.47,3.14-1.14-.21-2.11-.37-3.08-.57a36.53,36.53,0,0,0-5.4-1.13c-7.1-.38-14,1.06-20.93,2.4C697.86,431,697,431.23,696.5,430Z" transform="translate(-440.29 -290.11)"/><path d="M694.78,436.59c2.68-.56,5.18-1.07,7.67-1.61,5.49-1.19,11-2.08,16.65-1.62a20.64,20.64,0,0,1,5,1.16,11.46,11.46,0,0,1,2.54,1.76l-.21.57a8.52,8.52,0,0,1-2.83-.49c-2.43-1.41-5-1.17-7.63-1.22-6.44-.1-12.7,1.28-19,2.46C696.13,437.76,695.33,437.88,694.78,436.59Z" transform="translate(-440.29 -290.11)"/><path d="M694.7,433.06c1.32-.3,2.44-.57,3.56-.81,6.75-1.39,13.49-3,20.47-2.53,2.52.16,5,.51,7,2.34a7.39,7.39,0,0,1,.66.8l-.16.39c-1-.16-1.94-.29-2.89-.49a36.82,36.82,0,0,0-5.39-1.17c-7-.39-13.73,1-20.5,2.34C696.54,434.11,695.52,434.53,694.7,433.06Z" transform="translate(-440.29 -290.11)"/><path d="M696.57,463.08c1.64-.37,3.25-.81,4.88-1.08,4.5-.75,9-1.63,13.53-2.05a36.44,36.44,0,0,1,8.19.49,5.53,5.53,0,0,1,4.18,2.9,12.56,12.56,0,0,1-3.11-.57c-2.86-1.44-5.93-1.39-8.9-1.08-5.69.6-11.34,1.56-17,2.38C697.55,464.18,696.83,464.31,696.57,463.08Z" transform="translate(-440.29 -290.11)"/><path d="M728.39,471a17.1,17.1,0,0,0-2-.63c-4.31-.8-8.63-.45-13-.07a4.92,4.92,0,0,1-1.85-.24c3.49-2.58,17.09-1.44,19,1.5l-1.33.12,1.18,1.57a3.64,3.64,0,0,1-1.08-.13c-3.14-1.64-6.52-1.31-9.87-1.2-1.11,0-2.23.17-3.34.22a11.88,11.88,0,0,1-1.61-.15c1.33-1.14,6.71-1.32,13.8-.63Z" transform="translate(-440.29 -290.11)"/><path d="M640.27,437.31c.57-1.06,1.17-1.28,2.12-.78,1.64.87,3.3,1.72,5,2.46s3.64,1.77,5.7.32l.14.46a7.14,7.14,0,0,1-1.05.78c-2.07,1-4,.59-6-.4S642.27,438.27,640.27,437.31Z" transform="translate(-440.29 -290.11)"/><path d="M716.16,473.52c3.13-1.76,12.27-1,13.43,1-2.15-.33-4.34-.81-6.55-1S718.55,473.52,716.16,473.52Z" transform="translate(-440.29 -290.11)"/><path d="M718,475.2c3-1.69,10.63-1,11.57,1.17C725.7,474.52,721.82,475.24,718,475.2Z" transform="translate(-440.29 -290.11)"/><path d="M650.67,442.25a3.49,3.49,0,0,1-3.65.54c-1.5-.59-2.95-1.34-4.39-2.08-.28-.15-.41-.59-.6-.89.41-.06.89-.28,1.21-.14,1.49.63,2.9,1.45,4.41,2A15.64,15.64,0,0,0,650.67,442.25Z" transform="translate(-440.29 -290.11)"/><path d="M686.68,443.14c.44,2.11-3.07,3.35-8,4.2.29-.33.52-.8.89-1,1-.43,2-.64,3-1.09C684,444.63,685.38,443.84,686.68,443.14Z" transform="translate(-440.29 -290.11)"/><path d="M664.11,446a6.39,6.39,0,0,1,1.32-.58c1-.19,2-.19,2.9-.44,1.51-.39,3-.91,4.31-1.33-.44,1.85-5.06,3.55-8.37,2.76Z" transform="translate(-440.29 -290.11)"/><path class="cls-4" d="M656.27,410.94l2.82,3c.36-1.05-.45-2.9-1.9-3.69-1.06-.58-1.38-1.4-1.55-2.85l2.55.91-.06.33a4.19,4.19,0,0,1,1-.39c1.63-.17,2.39.57,2.37,2.21-.05,4.31-3.55,7.7-8.2,7.9a9.42,9.42,0,0,1-6.78-2.17l1.65-1.31-.36-.89a26.72,26.72,0,0,0,4.68.54C654.3,414.4,655.29,412.89,656.27,410.94Z" transform="translate(-440.29 -290.11)"/><path class="cls-4" d="M715.79,402.77c-7.35,1.26-13.34,5.28-19.5,8.92a9,9,0,0,1-2,.62,11.22,11.22,0,0,1,1.47-1.3A70.41,70.41,0,0,1,710,403.78a41.82,41.82,0,0,1,5.15-1.17C715.36,402.57,715.58,402.71,715.79,402.77Z" transform="translate(-440.29 -290.11)"/></g></g></svg>