<svg id="Layer_1" data-name="Layer 1" xmlns="http://www.w3.org/2000/svg" viewBox="0 0 803.41 225.01"><defs><style>.cls-1{fill:#a3dee8;}</style></defs><path class="cls-1" d="M118.69,352.92l16.85-12.64c3.2,6.1,7.85,9,11.92,9,6.68,0,10.46-3.2,10.46-15.11V274.61h25v61.6c0,18.89-10.17,34.58-32,34.58C135.58,370.79,125.69,365,118.69,352.92Z" transform="translate(-117.28 -272.87)"/><path class="cls-1" d="M202.69,323.43V274.61h25v51.74c0,16.85,4.36,23,14.24,23s14.53-6.11,14.53-23V274.61h24.11v48.82c0,32.25-12.2,47.36-38.64,47.36S202.69,355.68,202.69,323.43Z" transform="translate(-117.28 -272.87)"/><path class="cls-1" d="M293.69,357.28l14.2-17.15c6.68,5.38,15.11,9.16,22.08,9.16,7.56,0,10.75-2.47,10.75-6.69,0-4.5-4.79-6-12.78-9.15l-11.77-4.94c-10.17-4.07-19-12.64-19-26.29,0-16.13,14.53-29.35,35.16-29.35a45.43,45.43,0,0,1,31.36,12.64l-12.5,15.69c-6.39-4.5-11.91-6.83-18.88-6.83-6.1,0-9.88,2.18-9.88,6.39,0,4.51,5.37,6.1,13.95,9.45l11.47,4.5c11.77,4.65,18.45,12.78,18.45,25.86,0,16-13.36,30.22-36.9,30.22A54.63,54.63,0,0,1,293.69,357.28Z" transform="translate(-117.28 -272.87)"/><path class="cls-1" d="M396.52,295.53h-25V274.61h75v20.92h-25V369h-25Z" transform="translate(-117.28 -272.87)"/><path class="cls-1" d="M460.44,274.61h25V369h-25Z" transform="translate(-117.28 -272.87)"/><path class="cls-1" d="M502.28,322.56c0-31.68,21.79-49.69,45.62-49.69a41.75,41.75,0,0,1,29.35,12.48l-13.08,16c-4.65-4.06-9.3-7-15.69-7-11,0-20.63,10.17-20.63,27.31,0,17.73,8.14,27.61,20.34,27.61,7.27,0,13.08-3.78,17.14-8.14l13.08,15.69c-8,9.3-18.89,14-31.09,14C523.2,370.79,502.28,354.81,502.28,322.56Z" transform="translate(-117.28 -272.87)"/><path class="cls-1" d="M591.49,274.61h61v20.92h-36v14.82h30.78v20.92H616.48v16.85H654V369H591.49Z" transform="translate(-117.28 -272.87)"/><path class="cls-1" d="M117.28,401.66h26.41l9.88,41.26c2.61,10,4.36,19.75,7,29.92h.58c2.62-10.17,4.51-19.9,7-29.92l9.54-41.26h25.59l-27.89,94.43H145.17Z" transform="translate(-117.28 -272.87)"/><path class="cls-1" d="M210.84,401.66h25v94.43h-25Z" transform="translate(-117.28 -272.87)"/><path class="cls-1" d="M252.69,449.6c0-31.67,21.8-49.69,45.62-49.69a41.73,41.73,0,0,1,29.38,12.5l-13.08,16c-4.65-4.07-9.3-7-15.69-7-11,0-20.63,10.17-20.63,27.32,0,17.72,8.14,27.6,20.34,27.6,7.27,0,13.08-3.78,17.14-8.14l13.08,15.69c-8,9.3-18.89,14-31.09,14C273.6,497.83,252.69,481.85,252.69,449.6Z" transform="translate(-117.28 -272.87)"/><path class="cls-1" d="M358.45,422.58h-25V401.66h75v20.92h-25v73.51h-25Z" transform="translate(-117.28 -272.87)"/><path class="cls-1" d="M414,448.44c0-31.09,17.72-48.53,43.87-48.53s43.87,17.58,43.87,48.53S484,497.83,457.81,497.83,414,479.53,414,448.44Zm62.18,0c0-17.15-7-27-18.31-27s-18.3,9.88-18.3,27,7,27.89,18.3,27.89S476.13,465.58,476.13,448.44Z" transform="translate(-117.28 -272.87)"/><path class="cls-1" d="M518.55,401.66h35.74c20.34,0,37.77,7,37.77,30.5,0,22.81-17.43,32.26-37.77,32.26H543.54v31.67h-25Zm34,43c9.88,0,15.11-4.36,15.11-12.5s-5.23-10.75-15.11-10.75h-9v23.25Zm-2.76,13.22,16.85-16.53,30.65,54.77H569.4Z" transform="translate(-117.28 -272.87)"/><path class="cls-1" d="M610.08,401.66h25v94.43h-25Z" transform="translate(-117.28 -272.87)"/><path class="cls-1" d="M672.84,401.66h30.22l28.77,94.43H705.39l-10.76-45.91c-2.32-9-4.64-20.49-7-29.93h-.58c-2,9.59-4.36,20.92-6.68,29.93l-10.68,45.91H644.12Zm-8.15,55.06h46.2V476h-46.2Z" transform="translate(-117.28 -272.87)"/><path class="cls-1" d="M739.38,401.66H765l20.92,42.13,9,21.21h.58c-1.16-10.17-3.19-24.41-3.19-36V401.66h23.83v94.43H790.52L769.6,453.81l-9-21.06H760c1.17,10.75,3.2,24.4,3.2,36v27.32H739.38Z" transform="translate(-117.28 -272.87)"/><path class="cls-1" d="M833,448.44c0-31.09,17.72-48.53,43.87-48.53s43.87,17.58,43.87,48.53S903,497.83,876.81,497.83,833,479.53,833,448.44Zm62.18,0c0-17.15-7-27-18.31-27s-18.3,9.88-18.3,27,7,27.89,18.3,27.89S895.13,465.58,895.13,448.44Z" transform="translate(-117.28 -272.87)"/></svg>