<svg id="Layer_1" data-name="Layer 1" xmlns="http://www.w3.org/2000/svg" viewBox="0 0 224.96 803.42"><defs><style>.cls-1{fill:#a3dee8;}</style></defs><path class="cls-1" d="M736.57,959l-12.64-16.85c6.1-3.2,9-7.85,9-11.92,0-6.68-3.2-10.46-15.11-10.46H658.26v-25h61.6c18.89,0,34.58,10.17,34.58,32C754.44,942.11,748.63,952,736.57,959Z" transform="translate(-656.52 -156.99)"/><path class="cls-1" d="M707.08,875H658.26V850H710c16.85,0,23-4.36,23-14.24s-6.11-14.53-23-14.53H658.26V797.12h48.82c32.25,0,47.36,12.2,47.36,38.64S739.33,875,707.08,875Z" transform="translate(-656.52 -156.99)"/><path class="cls-1" d="M740.93,784,723.78,769.8c5.38-6.68,9.16-15.11,9.16-22.08,0-7.56-2.47-10.75-6.69-10.75-4.5,0-6,4.79-9.15,12.78l-4.94,11.77c-4.07,10.17-12.64,19-26.29,19-16.13,0-29.35-14.53-29.35-35.16A45.41,45.41,0,0,1,669.16,714l15.69,12.5c-4.5,6.39-6.83,11.91-6.83,18.88,0,6.1,2.18,9.88,6.39,9.88,4.51,0,6.1-5.37,9.45-13.95l4.5-11.47c4.65-11.77,12.78-18.45,25.86-18.45,16,0,30.22,13.36,30.22,36.9A54.71,54.71,0,0,1,740.93,784Z" transform="translate(-656.52 -156.99)"/><path class="cls-1" d="M679.18,681.17v25H658.26v-75h20.92v25h73.51v25Z" transform="translate(-656.52 -156.99)"/><path class="cls-1" d="M658.26,617.25v-25h94.43v25Z" transform="translate(-656.52 -156.99)"/><path class="cls-1" d="M706.21,575.41c-31.68,0-49.69-21.79-49.69-45.62A41.7,41.7,0,0,1,669,500.44l16,13.08c-4.06,4.65-7,9.3-7,15.69,0,11,10.17,20.63,27.31,20.63,17.73,0,27.61-8.14,27.61-20.34,0-7.27-3.78-13.08-8.14-17.14l15.69-13.08c9.3,8,14,18.89,14,31.09C754.44,554.49,738.46,575.41,706.21,575.41Z" transform="translate(-656.52 -156.99)"/><path class="cls-1" d="M658.26,486.2v-61h20.92v36H694V430.42h20.92v30.79h16.85V423.73h20.92V486.2Z" transform="translate(-656.52 -156.99)"/><path class="cls-1" d="M785.31,960.41V934l41.26-9.88c10-2.61,19.75-4.36,29.92-7v-.58c-10.17-2.62-19.9-4.51-29.92-7L785.31,900V874.41l94.43,27.89v30.22Z" transform="translate(-656.52 -156.99)"/><path class="cls-1" d="M785.31,866.85v-25h94.43v25Z" transform="translate(-656.52 -156.99)"/><path class="cls-1" d="M833.25,825c-31.67,0-49.69-21.8-49.69-45.62A41.68,41.68,0,0,1,796.06,750l16,13.08c-4.07,4.65-7,9.3-7,15.69,0,11,10.17,20.63,27.32,20.63,17.72,0,27.6-8.14,27.6-20.34,0-7.27-3.78-13.08-8.14-17.14l15.69-13.08c9.3,8,14,18.89,14,31.09C881.48,804.09,865.5,825,833.25,825Z" transform="translate(-656.52 -156.99)"/><path class="cls-1" d="M806.23,719.24v25H785.31v-75h20.92v25h73.51v25Z" transform="translate(-656.52 -156.99)"/><path class="cls-1" d="M832.09,663.74c-31.09,0-48.53-17.72-48.53-43.87S801.14,576,832.09,576s49.39,17.73,49.39,43.88S863.18,663.74,832.09,663.74Zm0-62.18c-17.15,0-27,7-27,18.31s9.88,18.3,27,18.3,27.89-7,27.89-18.3S849.23,601.56,832.09,601.56Z" transform="translate(-656.52 -156.99)"/><path class="cls-1" d="M785.31,559.14V523.4c0-20.34,7-37.77,30.5-37.77,22.81,0,32.26,17.43,32.26,37.77v10.75h31.67v25Zm43-34c0-9.88-4.36-15.11-12.5-15.11s-10.75,5.23-10.75,15.11v9h23.25Zm13.22,2.76L825,511.05l54.77-30.65v27.89Z" transform="translate(-656.52 -156.99)"/><path class="cls-1" d="M785.31,467.61v-25h94.43v25Z" transform="translate(-656.52 -156.99)"/><path class="cls-1" d="M785.31,404.85V374.63l94.43-28.77V372.3l-45.91,10.76c-9,2.32-20.49,4.64-29.93,7v.58c9.59,2,20.92,4.36,29.93,6.68L879.74,408v25.57ZM840.37,413v-46.2h19.32V413Z" transform="translate(-656.52 -156.99)"/><path class="cls-1" d="M785.31,338.31V312.74l42.13-20.92,21.21-9v-.58c-10.17,1.16-24.41,3.19-36,3.19H785.31V261.6h94.43v25.57l-42.28,20.92-21.06,9v.59c10.75-1.17,24.4-3.2,36-3.2h27.32v23.83Z" transform="translate(-656.52 -156.99)"/><path class="cls-1" d="M832.09,244.74c-31.09,0-48.53-17.72-48.53-43.87S801.14,157,832.09,157s49.39,17.73,49.39,43.88S863.18,244.74,832.09,244.74Zm0-62.18c-17.15,0-27,7-27,18.31s9.88,18.3,27,18.3,27.89-7,27.89-18.3S849.23,182.56,832.09,182.56Z" transform="translate(-656.52 -156.99)"/></svg>
