<svg id="Layer_1" data-name="Layer 1" xmlns="http://www.w3.org/2000/svg" viewBox="0 0 46.75 46.75"><defs><style>.cls-1{fill:none;stroke:#a3dee8;stroke-miterlimit:10;stroke-width:2.75px;}.cls-2{fill:#a3dee8;}</style></defs><circle class="cls-1" cx="23.38" cy="23.38" r="22"/><path class="cls-2" d="M990.12,550.63H985.9V537.06h4.22Zm-2.29-15.31h0a2.39,2.39,0,1,1,2.56-2.38A2.31,2.31,0,0,1,987.83,535.32Zm19.25,15.31h-4.86v-7.06c0-1.83-.74-3.12-2.39-3.12a2.43,2.43,0,0,0-2.29,1.65,4.23,4.23,0,0,0-.09,1.1v7.34h-4.77s.1-12.47,0-13.57h4.77v2.11c.28-.92,1.83-2.29,4.22-2.29,3,0,5.41,1.92,5.41,6.14Z" transform="translate(-972.79 -517.26)"/></svg>