<svg id="Layer_1" data-name="Layer 1" xmlns="http://www.w3.org/2000/svg" viewBox="0 0 569.69 159.21"><defs><style>.cls-1{fill:#617b97;}</style></defs><path class="cls-1" d="M608.17,492.94h18.61l9.91,26.91c1.21,3.64,2.22,7.69,3.43,11.53h.41c1.21-3.84,2.22-7.88,3.44-11.53l9.52-26.9H672.1l0,65.75H656.3V539.29c0-6.68,1.43-16.89,2.24-23.47h-.41l-5.47,15.78-8.1,21.75h-9.3l-8.09-21.75-5.25-15.78h-.4c.8,6.57,2.21,16.79,2.21,23.47V558.7H608.15Z" transform="translate(-599.82 -492.94)"/><path class="cls-1" d="M686.24,527l0-34h17.39v36c0,11.73,3,16,9.91,16s10.11-4.25,10.12-16V493h16.79v34c0,22.46-8.51,33-26.92,33S686.23,549.42,686.24,527Z" transform="translate(-599.82 -492.94)"/><path class="cls-1" d="M754.63,493H772l0,51.18h24.88v14.56H754.6Z" transform="translate(-599.82 -492.94)"/><path class="cls-1" d="M808.64,507.59h-17.4V493l52.19,0V507.6H826l0,51.19h-17.4Z" transform="translate(-599.82 -492.94)"/><path class="cls-1" d="M853.15,493h17.39l0,65.75h-17.4Z" transform="translate(-599.82 -492.94)"/><path class="cls-1" d="M885.11,493.05h18.61l9.9,26.91c1.21,3.64,2.22,7.69,3.44,11.53h.4c1.22-3.84,2.23-7.89,3.44-11.53l9.52-26.9H949l0,65.75H933.23V539.4c0-6.68,1.42-16.9,2.23-23.47h-.4l-5.47,15.78-8.1,21.74h-9.31l-8.08-21.75-5.25-15.78h-.41c.81,6.57,2.22,16.79,2.22,23.46V558.8H885.08Z" transform="translate(-599.82 -492.94)"/><path class="cls-1" d="M963.6,493.08l42.48,0v14.56H981V518h21.45v14.56H981v11.73h26.1v14.56H963.57Z" transform="translate(-599.82 -492.94)"/><path class="cls-1" d="M1019.83,493.1h19.42c20,0,33.78,9.32,33.78,32.58s-13.77,33.17-32.79,33.17h-20.43Zm18.39,51.8c9.51,0,17-3.84,17-19.22s-7.48-18.61-17-18.61h-1V544.9Z" transform="translate(-599.82 -492.94)"/><path class="cls-1" d="M1084.77,493.13h17.4l0,65.75h-17.4Z" transform="translate(-599.82 -492.94)"/><path class="cls-1" d="M1128.46,493.14h21l20,65.76h-18.41l-7.47-32c-1.61-6.27-3.23-14.26-4.84-20.84h-.41c-1.42,6.68-3,14.57-4.66,20.84l-7.5,32h-17.8Zm-5.68,38.34H1155v13.45h-32.16Z" transform="translate(-599.82 -492.94)"/><path class="cls-1" d="M619.87,585.1h21l20,65.76H642.5l-7.47-32c-1.62-6.27-3.23-14.26-4.85-20.83h-.4c-1.42,6.67-3,14.56-4.66,20.83l-7.5,32h-17.8Zm-5.68,38.34h32.17V636.9H614.19Z" transform="translate(-599.82 -492.94)"/><path class="cls-1" d="M666.2,585.12h24.88c14.16,0,26.3,4.87,26.29,21.25,0,15.88-12.15,22.45-26.31,22.45h-7.48v22h-17.4Zm23.65,30c6.88,0,10.52-3,10.53-8.69s-3.64-7.49-10.52-7.49h-6.27v16.18Zm-1.92,9.21,11.74-11.53L721,650.89H701.57Z" transform="translate(-599.82 -492.94)"/><path class="cls-1" d="M740.43,599.72H723V585.14l52.19,0v14.57h-17.4l0,51.19h-17.4Z" transform="translate(-599.82 -492.94)"/><path class="cls-1" d="M784.94,585.17h17.4l0,65.75H784.92Z" transform="translate(-599.82 -492.94)"/><path class="cls-1" d="M812.83,642.73l9.92-11.93c4.65,3.74,10.52,6.38,15.37,6.38,5.26,0,7.49-1.72,7.49-4.65,0-3.14-3.34-4.15-8.9-6.38l-8.19-3.44c-7.08-2.83-13.25-8.8-13.24-18.31,0-11.23,10.12-20.43,24.48-20.43a31.65,31.65,0,0,1,21.85,8.81L852.9,603.7c-4.44-3.13-8.29-4.75-13.14-4.75-4.25,0-6.88,1.51-6.88,4.44,0,3.14,3.74,4.25,9.7,6.58l8,3.14c8.2,3.24,12.85,8.91,12.84,18,0,11.13-9.31,21-25.7,21A38.05,38.05,0,0,1,812.83,642.73Z" transform="translate(-599.82 -492.94)"/><path class="cls-1" d="M884.46,599.77H867.07V585.2l52.19,0v14.56h-17.4l0,51.18h-17.4Z" transform="translate(-599.82 -492.94)"/></svg>